<?xml version="1.0" encoding="utf-8"?>
<!-- Generator: Adobe Illustrator 18.1.1, SVG Export Plug-In . SVG Version: 6.00 Build 0)  -->
<svg version="1.1" id="Capa_1" xmlns="http://www.w3.org/2000/svg" xmlns:xlink="http://www.w3.org/1999/xlink" x="0px" y="0px"
	 viewBox="0 0 168.8 50" enable-background="new 0 0 168.8 50" xml:space="preserve">
<g>
	<defs>
		<rect id="SVGID_1_" width="168.8" height="50"/>
	</defs>
	<clipPath id="SVGID_2_">
		<use xlink:href="#SVGID_1_"  overflow="visible"/>
	</clipPath>
	<path clip-path="url(#SVGID_2_)" fill="#A6A6A6" d="M162.7,50H5.9C2.7,50,0,47.3,0,44.1V5.9C0,2.6,2.7,0,5.9,0h156.8
		c3.3,0,6,2.6,6,5.9v38.2C168.8,47.3,166,50,162.7,50"/>
	<path clip-path="url(#SVGID_2_)" d="M167.5,44.1c0,2.6-2.1,4.8-4.8,4.8H5.9c-2.6,0-4.8-2.1-4.8-4.8V5.9c0-2.6,2.2-4.8,4.8-4.8
		h156.8c2.7,0,4.8,2.1,4.8,4.8L167.5,44.1z"/>
	<path clip-path="url(#SVGID_2_)" fill="#FFFFFF" d="M37.7,24.7c0-4,3.3-6,3.5-6.1c-1.9-2.8-4.8-3.1-5.8-3.2
		c-2.5-0.3-4.8,1.5-6.1,1.5c-1.3,0-3.2-1.4-5.3-1.4c-2.7,0-5.2,1.6-6.6,4c-2.8,4.9-0.7,12.1,2,16.1c1.4,1.9,2.9,4.1,5,4
		c2-0.1,2.8-1.3,5.2-1.3c2.4,0,3.1,1.3,5.3,1.2c2.2,0,3.6-2,4.9-3.9c1.6-2.2,2.2-4.4,2.2-4.5C41.9,31.2,37.7,29.6,37.7,24.7"/>
	<path clip-path="url(#SVGID_2_)" fill="#FFFFFF" d="M33.7,12.9c1.1-1.4,1.8-3.2,1.6-5.1c-1.6,0.1-3.6,1.1-4.7,2.4
		c-1,1.2-1.9,3.1-1.7,4.9C30.7,15.3,32.5,14.2,33.7,12.9"/>
	<path clip-path="url(#SVGID_2_)" fill="#FFFFFF" d="M67.1,39.4h-2.8l-1.6-4.9h-5.4l-1.5,4.9H53l5.4-16.6h3.3L67.1,39.4z M62.2,32.4
		l-1.4-4.3c-0.1-0.4-0.4-1.5-0.8-3.1h0c-0.2,0.7-0.4,1.8-0.8,3.1l-1.4,4.3H62.2z"/>
	<path clip-path="url(#SVGID_2_)" fill="#FFFFFF" d="M80.8,33.2c0,2-0.6,3.7-1.7,4.8c-1,1.1-2.2,1.6-3.7,1.6c-1.6,0-2.7-0.6-3.4-1.7
		H72v6.3h-2.7V31.3c0-1.3,0-2.6-0.1-3.9h2.3l0.1,1.9h0.1c0.9-1.4,2.2-2.1,4-2.1c1.4,0,2.6,0.6,3.5,1.7
		C80.4,29.9,80.8,31.4,80.8,33.2 M78.1,33.3c0-1.2-0.3-2.1-0.8-2.9c-0.6-0.8-1.3-1.2-2.3-1.2c-0.7,0-1.3,0.2-1.8,0.7
		c-0.5,0.4-0.9,1-1,1.7C72.1,32,72,32.2,72,32.4v2c0,0.9,0.3,1.6,0.8,2.2c0.5,0.6,1.2,0.9,2.1,0.9c1,0,1.8-0.4,2.3-1.2
		C77.8,35.6,78.1,34.6,78.1,33.3"/>
	<path clip-path="url(#SVGID_2_)" fill="#FFFFFF" d="M94.6,33.2c0,2-0.6,3.7-1.7,4.8c-1,1.1-2.2,1.6-3.7,1.6c-1.6,0-2.7-0.6-3.4-1.7
		h-0.1v6.3h-2.7V31.3c0-1.3,0-2.6-0.1-3.9h2.3l0.1,1.9h0c0.9-1.4,2.2-2.1,4-2.1c1.4,0,2.6,0.6,3.5,1.7
		C94.2,29.9,94.6,31.4,94.6,33.2 M91.9,33.3c0-1.2-0.3-2.1-0.8-2.9c-0.6-0.8-1.3-1.2-2.3-1.2c-0.7,0-1.3,0.2-1.8,0.7
		c-0.5,0.4-0.9,1-1,1.7c-0.1,0.3-0.1,0.6-0.1,0.8v2c0,0.9,0.3,1.6,0.8,2.2c0.5,0.6,1.2,0.9,2.1,0.9c1,0,1.8-0.4,2.3-1.2
		C91.6,35.6,91.9,34.6,91.9,33.3"/>
	<path clip-path="url(#SVGID_2_)" fill="#FFFFFF" d="M110,34.7c0,1.4-0.5,2.6-1.5,3.5c-1.1,1-2.6,1.5-4.5,1.5c-1.8,0-3.2-0.3-4.3-1
		l0.6-2.2c1.2,0.7,2.5,1.1,3.9,1.1c1,0,1.8-0.2,2.3-0.7c0.6-0.5,0.8-1.1,0.8-1.8c0-0.7-0.2-1.2-0.7-1.7c-0.5-0.5-1.2-0.9-2.3-1.3
		c-2.9-1.1-4.4-2.7-4.4-4.8c0-1.4,0.5-2.5,1.5-3.4c1-0.9,2.4-1.3,4.1-1.3c1.5,0,2.8,0.3,3.8,0.8l-0.7,2.2c-0.9-0.5-2-0.8-3.2-0.8
		c-0.9,0-1.7,0.2-2.2,0.7c-0.4,0.4-0.7,0.9-0.7,1.5c0,0.7,0.3,1.2,0.8,1.6c0.4,0.4,1.2,0.8,2.4,1.3c1.4,0.6,2.5,1.2,3.2,2
		C109.7,32.6,110,33.6,110,34.7"/>
	<path clip-path="url(#SVGID_2_)" fill="#FFFFFF" d="M118.9,29.4h-2.9v5.8c0,1.5,0.5,2.2,1.6,2.2c0.5,0,0.9,0,1.2-0.1l0.1,2
		c-0.5,0.2-1.2,0.3-2.1,0.3c-1.1,0-1.9-0.3-2.5-1c-0.6-0.6-0.9-1.7-0.9-3.2v-6h-1.8v-2h1.8v-2.2l2.6-0.8v3h2.9V29.4"/>
	<path clip-path="url(#SVGID_2_)" fill="#FFFFFF" d="M132.1,33.3c0,1.8-0.5,3.4-1.6,4.5c-1.1,1.2-2.6,1.8-4.4,1.8
		c-1.8,0-3.2-0.6-4.2-1.8c-1-1.2-1.6-2.6-1.6-4.4c0-1.9,0.5-3.4,1.6-4.6c1.1-1.2,2.5-1.8,4.4-1.8c1.8,0,3.2,0.6,4.2,1.8
		C131.6,30,132.1,31.5,132.1,33.3 M129.3,33.4c0-1.1-0.2-2.1-0.7-2.8c-0.6-1-1.4-1.4-2.4-1.4c-1.1,0-1.9,0.5-2.4,1.4
		c-0.5,0.8-0.7,1.8-0.7,2.9c0,1.1,0.2,2.1,0.7,2.8c0.6,1,1.4,1.4,2.4,1.4c1,0,1.8-0.5,2.4-1.5C129.1,35.4,129.3,34.5,129.3,33.4"/>
	<path clip-path="url(#SVGID_2_)" fill="#FFFFFF" d="M140.8,29.7c-0.3,0-0.5-0.1-0.8-0.1c-0.9,0-1.7,0.4-2.2,1.1
		c-0.4,0.6-0.7,1.4-0.7,2.4v6.3h-2.7l0-8.2c0-1.4,0-2.6-0.1-3.8h2.3l0.1,2.3h0.1c0.3-0.8,0.7-1.4,1.3-1.9c0.6-0.4,1.2-0.6,1.9-0.6
		c0.2,0,0.5,0,0.7,0V29.7"/>
	<path clip-path="url(#SVGID_2_)" fill="#FFFFFF" d="M152.7,32.8c0,0.5,0,0.9-0.1,1.2h-8c0,1.2,0.4,2.1,1.2,2.7
		c0.7,0.6,1.5,0.8,2.6,0.8c1.2,0,2.3-0.2,3.2-0.6l0.4,1.8c-1.1,0.5-2.5,0.7-4,0.7c-1.9,0-3.3-0.5-4.4-1.6c-1.1-1.1-1.6-2.6-1.6-4.4
		c0-1.8,0.5-3.3,1.5-4.5c1-1.3,2.4-1.9,4.2-1.9c1.7,0,3,0.6,3.9,1.9C152.3,30.1,152.7,31.3,152.7,32.8 M150.2,32.1
		c0-0.8-0.2-1.5-0.5-2c-0.5-0.7-1.2-1.1-2.1-1.1c-0.9,0-1.6,0.4-2.1,1.1c-0.4,0.6-0.7,1.3-0.8,2.1L150.2,32.1L150.2,32.1z"/>
	<path clip-path="url(#SVGID_2_)" fill="#FFFFFF" d="M60.3,8.8l-0.3,1c-0.5-0.2-1-0.3-1.6-0.3c-0.9,0-1.6,0.3-2.1,0.8
		c-0.5,0.6-0.8,1.3-0.8,2.3c0,1,0.3,1.7,0.8,2.3c0.5,0.5,1.2,0.8,2.1,0.8c0.6,0,1.2-0.1,1.6-0.3l0.2,1c-0.5,0.2-1.2,0.3-2.1,0.3
		c-1.2,0-2.2-0.4-2.9-1.1c-0.7-0.7-1.1-1.8-1.1-3c0-1.3,0.4-2.4,1.2-3.2c0.8-0.8,1.8-1.1,3-1.1C59.2,8.5,59.9,8.6,60.3,8.8"/>
	<path clip-path="url(#SVGID_2_)" fill="#FFFFFF" d="M67.5,13.8c0,0.9-0.3,1.6-0.8,2.2c-0.5,0.6-1.3,0.9-2.2,0.9
		c-0.9,0-1.6-0.3-2.1-0.9c-0.5-0.6-0.8-1.3-0.8-2.2c0-0.9,0.3-1.7,0.8-2.2c0.5-0.6,1.2-0.9,2.1-0.9c0.9,0,1.6,0.3,2.1,0.9
		C67.3,12.2,67.5,12.9,67.5,13.8 M66.2,13.8c0-0.5-0.1-1-0.4-1.4c-0.3-0.5-0.7-0.7-1.2-0.7c-0.5,0-0.9,0.2-1.2,0.7
		c-0.2,0.4-0.4,0.9-0.4,1.4c0,0.5,0.1,1,0.4,1.4c0.3,0.5,0.7,0.7,1.2,0.7c0.5,0,0.9-0.2,1.2-0.7C66.1,14.9,66.2,14.4,66.2,13.8"/>
	<path clip-path="url(#SVGID_2_)" fill="#FFFFFF" d="M74.6,16.8h-1.3v-3.4c0-1-0.4-1.6-1.2-1.6c-0.4,0-0.7,0.1-0.9,0.4
		c-0.2,0.3-0.4,0.6-0.4,1v3.5h-1.3v-4.2c0-0.5,0-1.1,0-1.7h1.2l0.1,0.9h0c0.2-0.3,0.4-0.5,0.7-0.7c0.4-0.2,0.8-0.3,1.2-0.3
		c0.6,0,1,0.2,1.4,0.5c0.5,0.4,0.7,1.1,0.7,2V16.8z"/>
	<path clip-path="url(#SVGID_2_)" fill="#FFFFFF" d="M80.5,15.1c0,0.5-0.2,1-0.6,1.3c-0.4,0.3-1,0.5-1.7,0.5c-0.7,0-1.2-0.1-1.7-0.4
		l0.3-1c0.5,0.3,0.9,0.4,1.4,0.4c0.7,0,1-0.2,1-0.7c0-0.2-0.1-0.4-0.2-0.5c-0.1-0.1-0.4-0.3-0.8-0.4c-1.1-0.4-1.6-1-1.6-1.7
		c0-0.5,0.2-0.9,0.6-1.3c0.4-0.3,0.9-0.5,1.5-0.5c0.6,0,1.1,0.1,1.5,0.4L80,12.1c-0.4-0.2-0.8-0.3-1.2-0.3c-0.3,0-0.5,0.1-0.6,0.2
		c-0.2,0.1-0.2,0.3-0.2,0.5c0,0.2,0.1,0.4,0.2,0.5c0.1,0.1,0.4,0.3,0.8,0.4C80,13.7,80.5,14.3,80.5,15.1"/>
	<path clip-path="url(#SVGID_2_)" fill="#FFFFFF" d="M83.7,16.8h-1.3v-5.9h1.3V16.8z M84.9,8.4l-1.5,1.8h-0.9l1-1.8H84.9z"/>
	<path clip-path="url(#SVGID_2_)" fill="#FFFFFF" d="M91.2,10.9c0,0.5,0,1,0,1.7v3.4c0,1.3-0.3,2.2-0.8,2.7
		c-0.5,0.5-1.2,0.7-2.2,0.7c-0.8,0-1.5-0.2-2-0.5l0.3-1c0.5,0.3,1.1,0.4,1.7,0.4c1.2,0,1.7-0.6,1.7-1.9v-0.6h0
		c-0.4,0.6-0.9,0.9-1.7,0.9c-0.7,0-1.3-0.3-1.8-0.8c-0.5-0.5-0.7-1.2-0.7-2.1c0-0.9,0.3-1.7,0.8-2.3c0.5-0.5,1.1-0.8,1.8-0.8
		c0.8,0,1.4,0.3,1.7,0.9h0l0-0.8L91.2,10.9L91.2,10.9z M89.9,14.3v-1c0-0.4-0.1-0.7-0.4-1c-0.2-0.3-0.6-0.4-1-0.4
		c-0.4,0-0.8,0.2-1.1,0.6c-0.3,0.4-0.4,0.9-0.4,1.5c0,0.6,0.1,1,0.4,1.4c0.3,0.4,0.7,0.6,1.1,0.6c0.3,0,0.6-0.1,0.8-0.3
		c0.2-0.2,0.4-0.4,0.5-0.7C89.9,14.7,89.9,14.5,89.9,14.3"/>
	<path clip-path="url(#SVGID_2_)" fill="#FFFFFF" d="M98.6,16.8h-1.2l-0.1-0.9h0c-0.4,0.7-1,1-1.9,1c-0.6,0-1-0.2-1.4-0.5
		c-0.4-0.4-0.6-1.1-0.6-2v-3.5h1.3v3.2c0,1.1,0.4,1.7,1.2,1.7c0.6,0,1-0.3,1.2-0.8c0.1-0.1,0.1-0.3,0.1-0.5v-3.6h1.3v4.2
		C98.6,15.7,98.6,16.2,98.6,16.8"/>
	<path clip-path="url(#SVGID_2_)" fill="#FFFFFF" d="M105.7,13.6c0,0.2,0,0.4,0,0.6h-3.9c0,0.6,0.2,1,0.6,1.3
		c0.3,0.3,0.8,0.4,1.3,0.4c0.6,0,1.1-0.1,1.6-0.3l0.2,0.9c-0.6,0.2-1.2,0.4-2,0.4c-0.9,0-1.6-0.3-2.2-0.8c-0.5-0.5-0.8-1.3-0.8-2.2
		c0-0.9,0.2-1.6,0.7-2.2c0.5-0.6,1.2-0.9,2.1-0.9c0.8,0,1.5,0.3,1.9,0.9C105.6,12.2,105.7,12.8,105.7,13.6 M104.5,13.2
		c0-0.4-0.1-0.7-0.3-1c-0.2-0.4-0.6-0.5-1-0.5c-0.4,0-0.8,0.2-1,0.5c-0.2,0.3-0.3,0.6-0.4,1H104.5z"/>
	<rect x="107.6" y="8.2" clip-path="url(#SVGID_2_)" fill="#FFFFFF" width="1.3" height="8.6"/>
	<path clip-path="url(#SVGID_2_)" fill="#FFFFFF" d="M116.7,13.8c0,0.9-0.3,1.6-0.8,2.2c-0.5,0.6-1.3,0.9-2.2,0.9
		c-0.9,0-1.6-0.3-2.1-0.9c-0.5-0.6-0.8-1.3-0.8-2.2c0-0.9,0.3-1.7,0.8-2.2c0.5-0.6,1.2-0.9,2.1-0.9c0.9,0,1.6,0.3,2.1,0.9
		C116.4,12.2,116.7,12.9,116.7,13.8 M115.3,13.8c0-0.5-0.1-1-0.4-1.4c-0.3-0.5-0.7-0.7-1.2-0.7c-0.5,0-0.9,0.2-1.2,0.7
		c-0.2,0.4-0.4,0.9-0.4,1.4c0,0.5,0.1,1,0.4,1.4c0.3,0.5,0.7,0.7,1.2,0.7c0.5,0,0.9-0.2,1.2-0.7C115.2,14.9,115.3,14.4,115.3,13.8"
		/>
	<path clip-path="url(#SVGID_2_)" fill="#FFFFFF" d="M127,13.6c0,0.2,0,0.4,0,0.6H123c0,0.6,0.2,1,0.6,1.3c0.3,0.3,0.8,0.4,1.3,0.4
		c0.6,0,1.1-0.1,1.6-0.3l0.2,0.9c-0.6,0.2-1.2,0.4-2,0.4c-0.9,0-1.6-0.3-2.2-0.8c-0.5-0.5-0.8-1.3-0.8-2.2c0-0.9,0.2-1.6,0.7-2.2
		c0.5-0.6,1.2-0.9,2.1-0.9c0.8,0,1.5,0.3,1.9,0.9C126.8,12.2,127,12.8,127,13.6 M125.7,13.2c0-0.4-0.1-0.7-0.3-1
		c-0.2-0.4-0.6-0.5-1-0.5c-0.4,0-0.8,0.2-1,0.5c-0.2,0.3-0.3,0.6-0.4,1H125.7"/>
	<path clip-path="url(#SVGID_2_)" fill="#FFFFFF" d="M134,16.8h-1.3v-3.4c0-1-0.4-1.6-1.2-1.6c-0.4,0-0.7,0.1-0.9,0.4
		c-0.2,0.3-0.4,0.6-0.4,1v3.5h-1.3v-4.2c0-0.5,0-1.1,0-1.7h1.1l0.1,0.9h0c0.2-0.3,0.4-0.5,0.7-0.7c0.4-0.2,0.8-0.3,1.2-0.3
		c0.5,0,1,0.2,1.4,0.5c0.5,0.4,0.7,1.1,0.7,2V16.8z"/>
	<path clip-path="url(#SVGID_2_)" fill="#FFFFFF" d="M144.7,13.6c0,0.2,0,0.4,0,0.6h-3.9c0,0.6,0.2,1,0.6,1.3
		c0.3,0.3,0.8,0.4,1.3,0.4c0.6,0,1.1-0.1,1.6-0.3l0.2,0.9c-0.6,0.2-1.2,0.4-2,0.4c-0.9,0-1.6-0.3-2.2-0.8c-0.5-0.5-0.8-1.3-0.8-2.2
		c0-0.9,0.2-1.6,0.7-2.2c0.5-0.6,1.2-0.9,2.1-0.9c0.9,0,1.5,0.3,1.9,0.9C144.5,12.2,144.7,12.8,144.7,13.6 M143.4,13.2
		c0-0.4-0.1-0.7-0.3-1c-0.2-0.4-0.6-0.5-1-0.5c-0.4,0-0.8,0.2-1,0.5c-0.2,0.3-0.3,0.6-0.4,1H143.4"/>
	<rect x="146.6" y="8.2" clip-path="url(#SVGID_2_)" fill="#FFFFFF" width="1.3" height="8.6"/>
</g>
</svg>
