<?xml version="1.0" encoding="utf-8"?>
<!-- Generator: Adobe Illustrator 18.1.1, SVG Export Plug-In . SVG Version: 6.00 Build 0)  -->
<svg version="1.1" id="Capa_1" xmlns="http://www.w3.org/2000/svg" xmlns:xlink="http://www.w3.org/1999/xlink" x="0px" y="0px"
	 viewBox="0 0 50 50" enable-background="new 0 0 50 50" xml:space="preserve">
<path fill="#3B3B3C" d="M29.2,17.4H8.7c-0.7,0-1.2-0.5-1.2-1.2C7.4,15.5,8,15,8.7,15h20.5c0.7,0,1.2,0.5,1.2,1.2
	C30.4,16.9,29.8,17.4,29.2,17.4 M18.5,22.4c0-0.7-0.5-1.2-1.2-1.2H8.7c-0.7,0-1.2,0.5-1.2,1.2s0.5,1.2,1.2,1.2h8.6
	C17.9,23.6,18.5,23.1,18.5,22.4 M42.9,29.5c-0.9,0.4-1.4,1.3-1.4,2.2l-0.6-1.3c-0.6-1.2-2-1.8-3.3-1.2c-1,0.5-1.6,1.6-1.4,2.6
	L36,31.3c-0.6-1.2-2-1.8-3.3-1.2c-1.1,0.5-1.7,1.8-1.3,2.9L26.7,23c-0.6-1.2-2-1.8-3.3-1.2c-1.2,0.6-1.8,2-1.2,3.3l6.3,13.4
	c-0.3-0.2-0.6-0.4-1-0.7c-4.8-3.3-7.1,0.5-7.1,1.5c0,1,3.9,0.9,8.7,5.5c2.7,2.5,4.8,3.9,5.6,4.3c2.6,1.3,5.9,1.3,9-0.1
	c4.7-2.2,7.5-7.3,5.7-11.2c-0.1-0.2-3.3-7.1-3.3-7.1C45.5,29.5,44.1,28.9,42.9,29.5 M21.1,42.6c-0.2-0.1-0.4-0.2-0.6-0.2H4.7
	c-0.4,0-0.8-0.4-0.8-0.8l0-36.8c0-0.4,0.4-0.8,0.8-0.8h22.6V10c0,0.3,0.3,0.6,0.6,0.6H34l0,16.9c0.5,0,1,0.1,1.4,0.3
	c0.3-0.3,0.7-0.6,1.2-0.8c0.4-0.2,0.8-0.3,1.3-0.4l0-17.1c0-0.8-0.4-1.9-1-2.4L30.7,1c-0.6-0.6-1.6-1-2.4-1H2.9C1.3,0,0,1.3,0,2.9
	l0,40.5c0,1.6,1.3,2.9,2.9,2.9h24.1C24.6,44,22.5,43.1,21.1,42.6"/>
</svg>
