<?xml version="1.0" encoding="utf-8"?>
<!-- Generator: Adobe Illustrator 18.1.1, SVG Export Plug-In . SVG Version: 6.00 Build 0)  -->
<svg version="1.1" id="Capa_1" xmlns="http://www.w3.org/2000/svg" xmlns:xlink="http://www.w3.org/1999/xlink" x="0px" y="0px"
	 viewBox="0 0 168.7 50" enable-background="new 0 0 168.7 50" xml:space="preserve">
<g>
	<defs>
		<rect id="SVGID_1_" x="0" y="0" width="168.7" height="50"/>
	</defs>
	<clipPath id="SVGID_2_">
		<use xlink:href="#SVGID_1_"  overflow="visible"/>
	</clipPath>
	<g clip-path="url(#SVGID_2_)">
		<defs>
			<rect id="SVGID_3_" x="0" y="0" width="168.7" height="50"/>
		</defs>
		<clipPath id="SVGID_4_">
			<use xlink:href="#SVGID_3_"  overflow="visible"/>
		</clipPath>
		<path clip-path="url(#SVGID_4_)" d="M162.5,50H6.2C2.8,50,0,47.2,0,43.7V6.2C0,2.8,2.8,0,6.2,0h156.2c3.4,0,6.2,2.8,6.2,6.2v37.5
			C168.7,47.2,165.9,50,162.5,50"/>
		<path clip-path="url(#SVGID_4_)" fill="#A6A6A6" d="M162.5,1c2.9,0,5.2,2.4,5.2,5.2v37.5c0,2.9-2.4,5.2-5.2,5.2H6.2
			C3.4,49,1,46.6,1,43.7V6.2C1,3.4,3.4,1,6.2,1H162.5 M162.5,0H6.2C2.8,0,0,2.8,0,6.2v37.5C0,47.2,2.8,50,6.2,50h156.2
			c3.4,0,6.2-2.8,6.2-6.2V6.2C168.7,2.8,165.9,0,162.5,0"/>
		<path clip-path="url(#SVGID_4_)" fill="#FFFFFF" d="M85.2,27.2c-2.9,0-5.3,2.2-5.3,5.3c0,3.1,2.4,5.3,5.3,5.3
			c2.9,0,5.3-2.3,5.3-5.3C90.5,29.4,88.1,27.2,85.2,27.2 M85.2,35.7c-1.6,0-3-1.3-3-3.2c0-1.9,1.4-3.2,3-3.2s3,1.3,3,3.2
			C88.2,34.4,86.8,35.7,85.2,35.7 M73.5,27.2c-2.9,0-5.3,2.2-5.3,5.3c0,3.1,2.4,5.3,5.3,5.3c2.9,0,5.3-2.3,5.3-5.3
			C78.9,29.4,76.5,27.2,73.5,27.2 M73.5,35.7c-1.6,0-3-1.3-3-3.2c0-1.9,1.4-3.2,3-3.2c1.6,0,3,1.3,3,3.2
			C76.5,34.4,75.1,35.7,73.5,35.7 M59.7,28.8v2.3h5.4c-0.2,1.3-0.6,2.2-1.2,2.8c-0.8,0.8-2,1.7-4.2,1.7c-3.3,0-5.9-2.7-5.9-6
			c0-3.3,2.6-6,5.9-6c1.8,0,3.1,0.7,4.1,1.6l1.6-1.6c-1.3-1.3-3.1-2.3-5.7-2.3c-4.6,0-8.4,3.7-8.4,8.3c0,4.6,3.8,8.3,8.4,8.3
			c2.5,0,4.3-0.8,5.8-2.3c1.5-1.5,2-3.6,2-5.3c0-0.5,0-1-0.1-1.4H59.7z M116.3,30.6c-0.4-1.2-1.8-3.4-4.6-3.4c-2.7,0-5,2.2-5,5.3
			c0,3,2.3,5.3,5.3,5.3c2.4,0,3.8-1.5,4.4-2.4l-1.8-1.2c-0.6,0.9-1.4,1.5-2.6,1.5c-1.2,0-2-0.5-2.6-1.6l7.1-2.9L116.3,30.6z
			 M109.1,32.3c-0.1-2.1,1.6-3.1,2.8-3.1c0.9,0,1.7,0.5,2,1.1L109.1,32.3z M103.3,37.5h2.3V21.9h-2.3V37.5z M99.5,28.4L99.5,28.4
			c-0.6-0.6-1.6-1.2-2.9-1.2c-2.7,0-5.1,2.3-5.1,5.3c0,3,2.4,5.3,5.1,5.3c1.3,0,2.3-0.6,2.8-1.2h0.1v0.8c0,2-1.1,3.1-2.8,3.1
			c-1.4,0-2.3-1-2.7-1.9l-2,0.8c0.6,1.4,2.1,3.1,4.7,3.1c2.7,0,5.1-1.6,5.1-5.5v-9.5h-2.2V28.4z M96.8,35.7c-1.6,0-3-1.3-3-3.2
			c0-1.9,1.3-3.2,3-3.2c1.6,0,2.8,1.4,2.8,3.2C99.6,34.4,98.4,35.7,96.8,35.7 M127.3,21.9h-5.6v15.6h2.3v-5.9h3.3
			c2.6,0,5.1-1.9,5.1-4.9S129.8,21.9,127.3,21.9 M127.3,29.4H124V24h3.3c1.7,0,2.7,1.4,2.7,2.7C130.1,27.9,129.1,29.4,127.3,29.4
			 M141.7,27.2c-1.7,0-3.4,0.7-4.2,2.4l2.1,0.9c0.4-0.9,1.3-1.1,2.1-1.1c1.2,0,2.4,0.7,2.5,2v0.2c-0.4-0.2-1.3-0.6-2.4-0.6
			c-2.2,0-4.5,1.2-4.5,3.5c0,2.1,1.8,3.4,3.9,3.4c1.6,0,2.4-0.7,3-1.5h0.1v1.2h2.3v-6C146.5,28.7,144.4,27.2,141.7,27.2 M141.5,35.7
			c-0.8,0-1.8-0.4-1.8-1.3c0-1.2,1.3-1.7,2.5-1.7c1,0,1.5,0.2,2.1,0.5C144,34.7,142.8,35.7,141.5,35.7 M154.7,27.5l-2.7,6.8h-0.1
			l-2.8-6.8h-2.5l4.2,9.5l-2.4,5.3h2.4l6.4-14.7H154.7z M133.7,37.5h2.3V21.9h-2.3V37.5z"/>
	</g>
	<g clip-path="url(#SVGID_2_)">
		<defs>
			<path id="SVGID_5_" d="M13,9.4c-0.4,0.4-0.6,1-0.6,1.8v27.6c0,0.8,0.2,1.4,0.6,1.8l0.1,0.1l15.5-15.5V25v-0.2L13,9.4L13,9.4z"/>
		</defs>
		<clipPath id="SVGID_6_">
			<use xlink:href="#SVGID_5_"  overflow="visible"/>
		</clipPath>
		
			<linearGradient id="SVGID_7_" gradientUnits="userSpaceOnUse" x1="17.1309" y1="45.2036" x2="18.3809" y2="45.2036" gradientTransform="matrix(-16.7824 16.7824 -16.7824 -16.7824 1077.0758 485.7191)">
			<stop  offset="0" style="stop-color:#00A0FF"/>
			<stop  offset="6.574450e-03" style="stop-color:#00A1FF"/>
			<stop  offset="0.2601" style="stop-color:#00BEFF"/>
			<stop  offset="0.5122" style="stop-color:#00D2FF"/>
			<stop  offset="0.7604" style="stop-color:#00DFFF"/>
			<stop  offset="1" style="stop-color:#00E3FF"/>
		</linearGradient>
		<polygon clip-path="url(#SVGID_6_)" fill="url(#SVGID_7_)" points="20.5,1.3 -3.2,25 20.5,48.7 44.3,25 		"/>
	</g>
	<g clip-path="url(#SVGID_2_)">
		<defs>
			<path id="SVGID_8_" d="M28.6,24.8V25v0.2l5.2,5.2l0.1-0.1l6.1-3.5c1.7-1,1.7-2.6,0-3.6l-6.1-3.5l-0.1-0.1L28.6,24.8z"/>
		</defs>
		<clipPath id="SVGID_9_">
			<use xlink:href="#SVGID_8_"  overflow="visible"/>
		</clipPath>
		
			<linearGradient id="SVGID_10_" gradientUnits="userSpaceOnUse" x1="17.2224" y1="44.9998" x2="18.4724" y2="44.9998" gradientTransform="matrix(-24.1969 0 0 -24.1969 459.0214 1113.858)">
			<stop  offset="0" style="stop-color:#FFE000"/>
			<stop  offset="0.4087" style="stop-color:#FFBD00"/>
			<stop  offset="0.7754" style="stop-color:#FFA500"/>
			<stop  offset="1" style="stop-color:#FF9C00"/>
		</linearGradient>
		<rect x="28.6" y="19.7" clip-path="url(#SVGID_9_)" fill="url(#SVGID_10_)" width="13.1" height="10.7"/>
	</g>
	<g clip-path="url(#SVGID_2_)">
		<defs>
			<path id="SVGID_11_" d="M13,40.6c0.6,0.6,1.5,0.7,2.6,0.1l18.3-10.4L28.6,25L13,40.6z"/>
		</defs>
		<clipPath id="SVGID_12_">
			<use xlink:href="#SVGID_11_"  overflow="visible"/>
		</clipPath>
		
			<linearGradient id="SVGID_13_" gradientUnits="userSpaceOnUse" x1="17.1216" y1="45.2721" x2="18.3716" y2="45.2721" gradientTransform="matrix(-22.7583 22.7583 -22.7583 -22.7583 1449.8569 667.3785)">
			<stop  offset="0" style="stop-color:#FF3A44"/>
			<stop  offset="1" style="stop-color:#C31162"/>
		</linearGradient>
		<polygon clip-path="url(#SVGID_12_)" fill="url(#SVGID_13_)" points="23.5,14.6 4.9,33.1 23.5,51.7 42,33.1 		"/>
	</g>
	<g clip-path="url(#SVGID_2_)">
		<defs>
			<path id="SVGID_14_" d="M13,9.4L28.6,25l5.3-5.3L15.6,9.3c-0.5-0.3-1-0.4-1.4-0.4C13.8,8.9,13.3,9.1,13,9.4"/>
		</defs>
		<clipPath id="SVGID_15_">
			<use xlink:href="#SVGID_14_"  overflow="visible"/>
		</clipPath>
		
			<linearGradient id="SVGID_16_" gradientUnits="userSpaceOnUse" x1="15.8903" y1="45.6141" x2="17.1403" y2="45.6141" gradientTransform="matrix(10.1625 10.1625 -10.1625 10.1625 309.9955 -623.6244)">
			<stop  offset="0" style="stop-color:#32A071"/>
			<stop  offset="6.850000e-02" style="stop-color:#2DA771"/>
			<stop  offset="0.4762" style="stop-color:#15CF74"/>
			<stop  offset="0.8009" style="stop-color:#06E775"/>
			<stop  offset="1" style="stop-color:#00F076"/>
		</linearGradient>
		<polygon clip-path="url(#SVGID_15_)" fill="url(#SVGID_16_)" points="5,17 23.5,35.4 41.9,17 23.5,-1.5 		"/>
	</g>
	<g clip-path="url(#SVGID_2_)">
		<defs>
			<rect id="SVGID_17_" x="0" y="0" width="168.7" height="50"/>
		</defs>
		<clipPath id="SVGID_18_">
			<use xlink:href="#SVGID_17_"  overflow="visible"/>
		</clipPath>
		<g opacity="0.2" clip-path="url(#SVGID_18_)" enable-background="new    ">
			<g>
				<defs>
					<rect id="SVGID_19_" x="13" y="30.2" width="20.9" height="10.9"/>
				</defs>
				<clipPath id="SVGID_20_">
					<use xlink:href="#SVGID_19_"  overflow="visible"/>
				</clipPath>
				<path clip-path="url(#SVGID_20_)" d="M33.8,30.2L15.6,40.5c-1,0.6-1.9,0.5-2.5,0L13,40.6l0.1,0.1v0c0.6,0.5,1.5,0.6,2.5,0
					l18.3-10.4L33.8,30.2z"/>
			</g>
		</g>
		<g opacity="0.12" clip-path="url(#SVGID_18_)" enable-background="new    ">
			<g>
				<defs>
					<rect id="SVGID_21_" x="12.5" y="38.6" width="0.7" height="1.9"/>
				</defs>
				<clipPath id="SVGID_22_">
					<use xlink:href="#SVGID_21_"  overflow="visible"/>
				</clipPath>
				<path clip-path="url(#SVGID_22_)" d="M13,40.4c-0.4-0.4-0.6-1-0.6-1.8v0.2c0,0.8,0.2,1.4,0.6,1.8V40.4L13,40.4z"/>
			</g>
		</g>
		<g opacity="0.12" clip-path="url(#SVGID_18_)" enable-background="new    ">
			<g>
				<defs>
					<rect id="SVGID_23_" x="33.8" y="25" width="7.5" height="5.3"/>
				</defs>
				<clipPath id="SVGID_24_">
					<use xlink:href="#SVGID_23_"  overflow="visible"/>
				</clipPath>
				<path clip-path="url(#SVGID_24_)" d="M40,26.6l-6.2,3.5l0.1,0.1l6.1-3.5c0.9-0.5,1.3-1.1,1.3-1.8C41.3,25.6,40.8,26.2,40,26.6"
					/>
			</g>
		</g>
		<g opacity="0.25" clip-path="url(#SVGID_18_)" enable-background="new    ">
			<g>
				<defs>
					<rect id="SVGID_25_" x="12.5" y="8.9" width="28.9" height="16.1"/>
				</defs>
				<clipPath id="SVGID_26_">
					<use xlink:href="#SVGID_25_"  overflow="visible"/>
				</clipPath>
				<path clip-path="url(#SVGID_26_)" fill="#FFFFFF" d="M15.6,9.5L40,23.4c0.8,0.4,1.2,1,1.3,1.6c0-0.7-0.4-1.3-1.3-1.8L15.6,9.3
					c-1.7-1-3.2-0.2-3.2,1.8v0.2C12.5,9.4,13.9,8.5,15.6,9.5"/>
			</g>
		</g>
		<path clip-path="url(#SVGID_18_)" fill="#FFFFFF" d="M51.6,16.2V8.7h2.3c1.2,0,2.1,0.3,2.8,1c0.7,0.7,1,1.6,1,2.7
			c0,1.1-0.3,2-1,2.7c-0.7,0.7-1.6,1-2.8,1H51.6z M52.6,15.3h1.3c0.9,0,1.6-0.2,2.1-0.7c0.5-0.5,0.8-1.2,0.8-2.1
			c0-0.9-0.3-1.6-0.8-2.1c-0.5-0.5-1.2-0.7-2.1-0.7h-1.3V15.3z"/>
		<path clip-path="url(#SVGID_18_)" fill="none" stroke="#FFFFFF" stroke-width="0.2" stroke-miterlimit="10" d="M51.6,16.2V8.7h2.3
			c1.2,0,2.1,0.3,2.8,1c0.7,0.7,1,1.6,1,2.7c0,1.1-0.3,2-1,2.7c-0.7,0.7-1.6,1-2.8,1H51.6z M52.6,15.3h1.3c0.9,0,1.6-0.2,2.1-0.7
			c0.5-0.5,0.8-1.2,0.8-2.1c0-0.9-0.3-1.6-0.8-2.1c-0.5-0.5-1.2-0.7-2.1-0.7h-1.3V15.3z"/>
		<rect x="59" y="8.7" clip-path="url(#SVGID_18_)" fill="#FFFFFF" width="1" height="7.5"/>
		
			<rect x="59" y="8.7" clip-path="url(#SVGID_18_)" fill="none" stroke="#FFFFFF" stroke-width="0.2" stroke-miterlimit="10" width="1" height="7.5"/>
		<path clip-path="url(#SVGID_18_)" fill="#FFFFFF" d="M63.8,16.4c-0.5,0-1.1-0.2-1.6-0.5c-0.5-0.4-0.9-0.9-1-1.5l0.9-0.4
			c0.1,0.4,0.3,0.8,0.6,1c0.3,0.3,0.7,0.4,1.1,0.4c0.4,0,0.8-0.1,1.1-0.3c0.3-0.2,0.4-0.5,0.4-0.9c0-0.4-0.1-0.7-0.4-1
			c-0.3-0.2-0.8-0.4-1.4-0.6c-0.7-0.2-1.2-0.5-1.5-0.8c-0.3-0.3-0.5-0.8-0.5-1.3c0-0.5,0.2-1,0.6-1.4c0.4-0.4,1-0.6,1.7-0.6
			c0.6,0,1.2,0.2,1.5,0.5c0.4,0.3,0.7,0.7,0.8,1l-0.9,0.4c-0.1-0.2-0.2-0.5-0.5-0.7c-0.2-0.2-0.6-0.3-1-0.3c-0.4,0-0.7,0.1-0.9,0.3
			c-0.3,0.2-0.4,0.5-0.4,0.8c0,0.3,0.1,0.5,0.4,0.7c0.2,0.2,0.6,0.4,1.1,0.5c0.4,0.1,0.7,0.2,0.9,0.3c0.2,0.1,0.5,0.3,0.8,0.4
			c0.3,0.2,0.4,0.4,0.6,0.7c0.1,0.3,0.2,0.6,0.2,1c0,0.4-0.1,0.7-0.2,1c-0.2,0.3-0.3,0.5-0.6,0.7c-0.2,0.2-0.5,0.3-0.8,0.4
			C64.4,16.4,64.1,16.4,63.8,16.4"/>
		<path clip-path="url(#SVGID_18_)" fill="none" stroke="#FFFFFF" stroke-width="0.2" stroke-miterlimit="10" d="M63.8,16.4
			c-0.5,0-1.1-0.2-1.6-0.5c-0.5-0.4-0.9-0.9-1-1.5l0.9-0.4c0.1,0.4,0.3,0.8,0.6,1c0.3,0.3,0.7,0.4,1.1,0.4c0.4,0,0.8-0.1,1.1-0.3
			c0.3-0.2,0.4-0.5,0.4-0.9c0-0.4-0.1-0.7-0.4-1c-0.3-0.2-0.8-0.4-1.4-0.6c-0.7-0.2-1.2-0.5-1.5-0.8c-0.3-0.3-0.5-0.8-0.5-1.3
			c0-0.5,0.2-1,0.6-1.4c0.4-0.4,1-0.6,1.7-0.6c0.6,0,1.2,0.2,1.5,0.5c0.4,0.3,0.7,0.7,0.8,1l-0.9,0.4c-0.1-0.2-0.2-0.5-0.5-0.7
			c-0.2-0.2-0.6-0.3-1-0.3c-0.4,0-0.7,0.1-0.9,0.3c-0.3,0.2-0.4,0.5-0.4,0.8c0,0.3,0.1,0.5,0.4,0.7c0.2,0.2,0.6,0.4,1.1,0.5
			c0.4,0.1,0.7,0.2,0.9,0.3c0.2,0.1,0.5,0.3,0.8,0.4c0.3,0.2,0.4,0.4,0.6,0.7c0.1,0.3,0.2,0.6,0.2,1c0,0.4-0.1,0.7-0.2,1
			c-0.2,0.3-0.3,0.5-0.6,0.7c-0.2,0.2-0.5,0.3-0.8,0.4C64.4,16.4,64.1,16.4,63.8,16.4z"/>
		<path clip-path="url(#SVGID_18_)" fill="#FFFFFF" d="M68.7,16.2h-1V8.7h2.6c0.6,0,1.2,0.2,1.6,0.6c0.5,0.4,0.7,1,0.7,1.6
			s-0.2,1.2-0.7,1.6c-0.5,0.4-1,0.6-1.6,0.6h-1.6V16.2z M68.7,12.3h1.6c0.4,0,0.7-0.1,1-0.4c0.2-0.3,0.4-0.6,0.4-0.9
			c0-0.3-0.1-0.6-0.4-0.9c-0.2-0.3-0.6-0.4-1-0.4h-1.6V12.3z"/>
		<path clip-path="url(#SVGID_18_)" fill="none" stroke="#FFFFFF" stroke-width="0.2" stroke-miterlimit="10" d="M68.7,16.2h-1V8.7
			h2.6c0.6,0,1.2,0.2,1.6,0.6c0.5,0.4,0.7,1,0.7,1.6s-0.2,1.2-0.7,1.6c-0.5,0.4-1,0.6-1.6,0.6h-1.6V16.2z M68.7,12.3h1.6
			c0.4,0,0.7-0.1,1-0.4c0.2-0.3,0.4-0.6,0.4-0.9c0-0.3-0.1-0.6-0.4-0.9c-0.2-0.3-0.6-0.4-1-0.4h-1.6V12.3z"/>
		<path clip-path="url(#SVGID_18_)" fill="#FFFFFF" d="M80,15.3c-0.7,0.8-1.7,1.1-2.7,1.1c-1.1,0-2-0.4-2.7-1.1
			c-0.7-0.8-1.1-1.7-1.1-2.8c0-1.1,0.4-2,1.1-2.8c0.7-0.8,1.7-1.1,2.7-1.1c1.1,0,2,0.4,2.7,1.1c0.7,0.8,1.1,1.7,1.1,2.8
			C81.1,13.6,80.7,14.5,80,15.3 M75.2,14.7c0.6,0.6,1.2,0.8,2,0.8c0.8,0,1.5-0.3,2-0.8c0.6-0.6,0.8-1.3,0.8-2.2
			c0-0.9-0.3-1.6-0.8-2.2c-0.6-0.6-1.2-0.8-2-0.8c-0.8,0-1.5,0.3-2,0.8c-0.6,0.6-0.8,1.3-0.8,2.2C74.4,13.4,74.6,14.1,75.2,14.7"/>
		<path clip-path="url(#SVGID_18_)" fill="none" stroke="#FFFFFF" stroke-width="0.2" stroke-miterlimit="10" d="M80,15.3
			c-0.7,0.8-1.7,1.1-2.7,1.1c-1.1,0-2-0.4-2.7-1.1c-0.7-0.8-1.1-1.7-1.1-2.8c0-1.1,0.4-2,1.1-2.8c0.7-0.8,1.7-1.1,2.7-1.1
			c1.1,0,2,0.4,2.7,1.1c0.7,0.8,1.1,1.7,1.1,2.8C81.1,13.6,80.7,14.5,80,15.3z M75.2,14.7c0.6,0.6,1.2,0.8,2,0.8
			c0.8,0,1.5-0.3,2-0.8c0.6-0.6,0.8-1.3,0.8-2.2c0-0.9-0.3-1.6-0.8-2.2c-0.6-0.6-1.2-0.8-2-0.8c-0.8,0-1.5,0.3-2,0.8
			c-0.6,0.6-0.8,1.3-0.8,2.2C74.4,13.4,74.6,14.1,75.2,14.7z"/>
		<polygon clip-path="url(#SVGID_18_)" fill="#FFFFFF" points="82.4,16.2 82.4,8.7 83.6,8.7 87.3,14.6 87.3,14.6 87.3,13.1 
			87.3,8.7 88.2,8.7 88.2,16.2 87.2,16.2 83.4,10.1 83.4,10.1 83.4,11.6 83.4,16.2 		"/>
		<polygon clip-path="url(#SVGID_18_)" fill="none" stroke="#FFFFFF" stroke-width="0.2" stroke-miterlimit="10" points="82.4,16.2 
			82.4,8.7 83.6,8.7 87.3,14.6 87.3,14.6 87.3,13.1 87.3,8.7 88.2,8.7 88.2,16.2 87.2,16.2 83.4,10.1 83.4,10.1 83.4,11.6 
			83.4,16.2 		"/>
		<rect x="89.9" y="8.7" clip-path="url(#SVGID_18_)" fill="#FFFFFF" width="1" height="7.5"/>
		
			<rect x="89.9" y="8.7" clip-path="url(#SVGID_18_)" fill="none" stroke="#FFFFFF" stroke-width="0.2" stroke-miterlimit="10" width="1" height="7.5"/>
		<path clip-path="url(#SVGID_18_)" fill="#FFFFFF" d="M92.6,16.2V8.7h2.7c0.6,0,1.1,0.2,1.5,0.6c0.4,0.4,0.6,0.9,0.6,1.5
			c0,0.4-0.1,0.7-0.3,0.9c-0.2,0.3-0.4,0.5-0.7,0.6v0c0.4,0.1,0.7,0.3,0.9,0.6c0.2,0.3,0.4,0.7,0.4,1.1c0,0.6-0.2,1.1-0.7,1.5
			c-0.4,0.4-1,0.6-1.6,0.6H92.6z M93.6,12h1.7c0.4,0,0.7-0.1,0.9-0.4c0.2-0.2,0.3-0.5,0.3-0.8c0-0.3-0.1-0.5-0.3-0.8
			c-0.2-0.2-0.5-0.4-0.8-0.4h-1.8V12z M93.6,15.3h1.9c0.4,0,0.7-0.1,0.9-0.4c0.2-0.3,0.3-0.5,0.3-0.8s-0.1-0.6-0.4-0.8
			c-0.2-0.3-0.5-0.4-0.9-0.4h-1.9V15.3z"/>
		<path clip-path="url(#SVGID_18_)" fill="none" stroke="#FFFFFF" stroke-width="0.2" stroke-miterlimit="10" d="M92.6,16.2V8.7h2.7
			c0.6,0,1.1,0.2,1.5,0.6c0.4,0.4,0.6,0.9,0.6,1.5c0,0.4-0.1,0.7-0.3,0.9c-0.2,0.3-0.4,0.5-0.7,0.6v0c0.4,0.1,0.7,0.3,0.9,0.6
			c0.2,0.3,0.4,0.7,0.4,1.1c0,0.6-0.2,1.1-0.7,1.5c-0.4,0.4-1,0.6-1.6,0.6H92.6z M93.6,12h1.7c0.4,0,0.7-0.1,0.9-0.4
			c0.2-0.2,0.3-0.5,0.3-0.8c0-0.3-0.1-0.5-0.3-0.8c-0.2-0.2-0.5-0.4-0.8-0.4h-1.8V12z M93.6,15.3h1.9c0.4,0,0.7-0.1,0.9-0.4
			c0.2-0.3,0.3-0.5,0.3-0.8s-0.1-0.6-0.4-0.8c-0.2-0.3-0.5-0.4-0.9-0.4h-1.9V15.3z"/>
		<polygon clip-path="url(#SVGID_18_)" fill="#FFFFFF" points="99.1,16.2 99.1,8.7 100,8.7 100,15.3 103.3,15.3 103.3,16.2 		"/>
		<polygon clip-path="url(#SVGID_18_)" fill="none" stroke="#FFFFFF" stroke-width="0.2" stroke-miterlimit="10" points="99.1,16.2 
			99.1,8.7 100,8.7 100,15.3 103.3,15.3 103.3,16.2 		"/>
		<polygon clip-path="url(#SVGID_18_)" fill="#FFFFFF" points="108.9,9.7 105.4,9.7 105.4,12 108.5,12 108.5,12.9 105.4,12.9 
			105.4,15.3 108.9,15.3 108.9,16.2 104.5,16.2 104.5,8.7 108.9,8.7 		"/>
		<polygon clip-path="url(#SVGID_18_)" fill="none" stroke="#FFFFFF" stroke-width="0.2" stroke-miterlimit="10" points="108.9,9.7 
			105.4,9.7 105.4,12 108.5,12 108.5,12.9 105.4,12.9 105.4,15.3 108.9,15.3 108.9,16.2 104.5,16.2 104.5,8.7 108.9,8.7 		"/>
		<polygon clip-path="url(#SVGID_18_)" fill="#FFFFFF" points="117.3,9.7 113.8,9.7 113.8,12 116.9,12 116.9,12.9 113.8,12.9 
			113.8,15.3 117.3,15.3 117.3,16.2 112.9,16.2 112.9,8.7 117.3,8.7 		"/>
		<polygon clip-path="url(#SVGID_18_)" fill="none" stroke="#FFFFFF" stroke-width="0.2" stroke-miterlimit="10" points="117.3,9.7 
			113.8,9.7 113.8,12 116.9,12 116.9,12.9 113.8,12.9 113.8,15.3 117.3,15.3 117.3,16.2 112.9,16.2 112.9,8.7 117.3,8.7 		"/>
		<polygon clip-path="url(#SVGID_18_)" fill="#FFFFFF" points="118.8,16.2 118.8,8.7 119.9,8.7 123.6,14.6 123.6,14.6 123.6,13.1 
			123.6,8.7 124.5,8.7 124.5,16.2 123.5,16.2 119.7,10.1 119.7,10.1 119.7,11.6 119.7,16.2 		"/>
		<polygon clip-path="url(#SVGID_18_)" fill="none" stroke="#FFFFFF" stroke-width="0.2" stroke-miterlimit="10" points="
			118.8,16.2 118.8,8.7 119.9,8.7 123.6,14.6 123.6,14.6 123.6,13.1 123.6,8.7 124.5,8.7 124.5,16.2 123.5,16.2 119.7,10.1 
			119.7,10.1 119.7,11.6 119.7,16.2 		"/>
	</g>
</g>
</svg>
