<?xml version="1.0" encoding="utf-8"?>
<!-- Generator: Adobe Illustrator 18.1.1, SVG Export Plug-In . SVG Version: 6.00 Build 0)  -->
<svg version="1.1" id="Capa_1" xmlns="http://www.w3.org/2000/svg" xmlns:xlink="http://www.w3.org/1999/xlink" x="0px" y="0px"
	 viewBox="0 0 50 50" enable-background="new 0 0 50 50" xml:space="preserve">
<g>
	<path fill="#3B3B3C" d="M25,0c14,0,25,11,25,25c0,14.1-11,25-25.1,25c-14,0-25-10.9-25-25C0,10.9,10.9,0,25,0 M22.5,37v1.5
		c0,1.7,0.7,2.4,2.2,2.4h0.2c1.4,0,2.1-0.8,2.1-2.4v-1.5c4.4-0.7,7.3-3.3,7.3-7.2c0-4.8-4.7-6.3-8.2-7c-3-0.7-5.3-1.2-5.3-3.3
		c0-1.7,1.8-3,4.4-3c2.6,0,5,1.3,6.4,2.9c0.1,0.1,2-0.9,2-2.6c0-1.9-2.3-3.8-6.5-4.3v-1.3c0-1.7-0.6-2.4-2.1-2.4h-0.2
		c-1.5,0-2.1,0.8-2.1,2.4v1.4c-4.1,0.8-6.8,3.4-6.8,7c0,5,4.4,6.3,7.8,7c2.8,0.6,5.4,1.2,5.4,3.4c0,1.7-1.8,3-4.6,3
		c-3,0-5.8-1.5-7.2-3.3c-0.1-0.1-2,1-2,2.5C15.4,34.2,18,36.4,22.5,37"/>
</g>
</svg>
