<?xml version="1.0" standalone="no"?>
<!DOCTYPE svg PUBLIC "-//W3C//DTD SVG 1.1//EN" "http://www.w3.org/Graphics/SVG/1.1/DTD/svg11.dtd" >
<svg xmlns="http://www.w3.org/2000/svg">
<metadata></metadata>
<defs>
<font id="gloriolabold_italic" horiz-adv-x="1126" >
<font-face units-per-em="2048" ascent="1552" descent="-496" />
<missing-glyph horiz-adv-x="481" />
<glyph unicode="&#xfb01;" horiz-adv-x="1300" d="M-229 -408l61 291q92 -18 139 -18q58 0 85 31t36 106l84 698h-153l59 308h133l16 135q50 409 396 409q98 0 229 -34l-61 -291q-74 18 -117 18q-47 0 -70.5 -31t-32.5 -106l-12 -100h676l-123 -1008h-348l84 700h-328l-88 -733q-9 -71 -26 -129t-49 -111t-77.5 -89.5 t-113 -58t-152.5 -21.5q-108 0 -247 34zM905 1276q0 91 65 154t154 63q76 0 123 -46t47 -118q0 -93 -63 -157t-154 -64q-76 0 -124 47t-48 121z" />
<glyph unicode="&#xfb02;" horiz-adv-x="1392" d="M-229 -408l61 291q92 -18 139 -18q58 0 85 31t36 106l84 698h-153l59 308h133l16 135q14 117 56.5 197t115.5 126.5t166.5 66t223.5 19.5q189 0 507 -36l-143 -1168q-6 -49 37 -55t127 16l-8 -291q-84 -21 -141 -29.5t-138 -8.5q-114 0 -183 72.5t-50 215.5l119 967 q-113 10 -156 10q-94 0 -137.5 -33t-53.5 -114l-10 -90h205l-59 -308h-185l-88 -733q-9 -71 -26 -129t-49 -111t-77.5 -89.5t-113 -58t-152.5 -21.5q-108 0 -247 34z" />
<glyph unicode="&#xfb03;" horiz-adv-x="1976" d="M-229 -408l61 291q92 -18 139 -18q58 0 85 31t36 106l84 698h-153l59 308h133l16 135q11 89 37 159t73.5 128.5t126 90t183.5 31.5q107 0 246 -34l-61 -291q-88 18 -140 18q-58 0 -85 -31t-36 -106l-12 -100h328l16 135q50 409 396 409q98 0 229 -34l-62 -291 q-74 18 -116 18q-47 0 -70.5 -31t-32.5 -106l-12 -100h676l-123 -1008h-348l84 700h-328l-88 -733q-9 -71 -26 -129t-49 -111t-77.5 -89.5t-113 -58t-152.5 -21.5q-109 0 -248 34l62 291q92 -18 139 -18q58 0 85 31t36 106l84 698h-328l-88 -733q-9 -71 -26 -129t-49 -111 t-77.5 -89.5t-113 -58t-152.5 -21.5q-108 0 -247 34zM1581 1276q0 91 65 154t154 63q76 0 123 -46t47 -118q0 -93 -63 -157t-154 -64q-76 0 -124 47t-48 121z" />
<glyph unicode="&#xfb04;" horiz-adv-x="2068" d="M-229 -408l61 291q92 -18 139 -18q58 0 85 31t36 106l84 698h-153l59 308h133l16 135q11 89 37 159t73.5 128.5t126 90t183.5 31.5q107 0 246 -34l-61 -291q-88 18 -140 18q-58 0 -85 -31t-36 -106l-12 -100h328l16 135q14 117 56.5 197t115 126.5t166 66t223.5 19.5 q190 0 508 -36l-143 -1168q-6 -49 37 -55t127 16l-8 -291q-84 -21 -141 -29.5t-138 -8.5q-114 0 -183 72.5t-50 215.5l118 967q-113 10 -155 10q-94 0 -137.5 -33t-53.5 -114l-10 -90h205l-60 -308h-184l-88 -733q-9 -71 -26 -129t-49 -111t-77.5 -89.5t-113 -58 t-152.5 -21.5q-109 0 -248 34l62 291q92 -18 139 -18q58 0 85 31t36 106l84 698h-328l-88 -733q-9 -71 -26 -129t-49 -111t-77.5 -89.5t-113 -58t-152.5 -21.5q-108 0 -247 34z" />
<glyph horiz-adv-x="0" />
<glyph horiz-adv-x="682" />
<glyph unicode=" "  horiz-adv-x="481" />
<glyph unicode="&#x09;" horiz-adv-x="481" />
<glyph unicode="&#xa0;" horiz-adv-x="481" />
<glyph unicode="!" horiz-adv-x="716" d="M102 145q0 92 63.5 156t153.5 64q76 0 124.5 -47t48.5 -121q0 -91 -65.5 -154t-154.5 -63q-75 0 -122.5 46.5t-47.5 118.5zM158 461l100 977h389l-139 -957z" />
<glyph unicode="&#x22;" horiz-adv-x="884" d="M115 770l41 668h329l-123 -668h-247zM547 770l41 668h330l-123 -668h-248z" />
<glyph unicode="#" d="M-23 303l21 307h156l41 217h-144l21 308h182l59 307l301 -8l-57 -299h168l59 307l301 -8l-57 -299h117l-21 -308h-155l-41 -217h143l-20 -307h-183l-59 -307l-301 8l57 299h-168l-59 -307l-301 8l57 299h-117zM457 610h168l41 217h-168z" />
<glyph unicode="$" horiz-adv-x="1220" d="M39 51l106 344q96 -29 222.5 -48t222.5 -19q74 0 106 44.5t25 96.5q-2 15 -30.5 28t-72.5 23t-99.5 26t-113 34.5t-112.5 51.5t-98 74t-69 104.5t-26 141.5q0 92 25.5 171t79 145.5t144 112.5t212.5 65l27 221l291 21l-29 -234q197 -17 344 -68l-109 -344 q-97 29 -223 48.5t-221 19.5q-74 0 -106 -45t-23 -96q2 -17 37.5 -31t90.5 -27.5t120.5 -31t130.5 -49t118.5 -74t87 -112t33.5 -157.5q0 -199 -114 -329t-346 -166l-27 -221l-289 -21l27 234q-212 18 -342 67z" />
<glyph unicode="%" horiz-adv-x="1669" d="M78 938q0 110 21 197.5t56.5 145.5t85.5 97t106 55.5t120 16.5q287 0 287 -313q0 -110 -21 -197.5t-56.5 -145.5t-85.5 -97t-106 -55.5t-120 -16.5q-287 0 -287 313zM262 0l893 1438h264l-893 -1438h-264zM324 924q0 -107 57 -107q14 0 29 8.5t32.5 32t31.5 59t23 95.5 t9 135q0 106 -57 106q-14 0 -29 -8.5t-32.5 -31.5t-31.5 -58.5t-23 -95.5t-9 -135zM924 303q0 110 21 197.5t56.5 145.5t85.5 97t106 55.5t120 16.5q286 0 286 -313q0 -110 -21 -197.5t-56.5 -145.5t-85.5 -97t-106 -55.5t-120 -16.5q-286 0 -286 313zM1169 289 q0 -107 58 -107q14 0 29 8.5t32.5 32t31.5 59t23 95.5t9 135q0 106 -58 106q-14 0 -29 -8.5t-32.5 -31.5t-31.5 -58.5t-23 -95.5t-9 -135z" />
<glyph unicode="&#x26;" horiz-adv-x="1323" d="M27 311q0 148 73.5 248.5t216.5 171.5q-167 113 -167 285q0 209 150 325.5t417 116.5q194 0 459 -72l-107 -344q-213 68 -342 68q-94 0 -142 -31.5t-48 -83.5t53 -102h733l-59 -348h-168l-88 -721l-392 -21l23 195q-91 -18 -182 -18q-196 0 -313 85t-117 246zM426 412 q0 -86 143 -86q49 0 111 10l27 209h-201q-80 -60 -80 -133z" />
<glyph unicode="'" horiz-adv-x="452" d="M115 770l41 668h329l-123 -668h-247z" />
<glyph unicode="(" horiz-adv-x="811" d="M102 571q0 267 72.5 502.5t222.5 429t367 314.5l203 -205q-262 -182 -388 -426t-126 -584q0 -207 74.5 -367.5t234.5 -293.5l-252 -205q-195 121 -301.5 333.5t-106.5 501.5z" />
<glyph unicode=")" horiz-adv-x="811" d="M-129 -59q262 182 388 426t126 583q0 207 -75 368t-234 294l252 205q195 -120 301 -333.5t106 -502.5q0 -267 -72 -502t-222 -428.5t-367 -314.5z" />
<glyph unicode="*" horiz-adv-x="1069" d="M80 999l125 326l256 -131l-4 281l338 20l-76 -295l266 123l84 -313l-297 -54l170 -202l-287 -213l-112 270l-168 -256l-260 180l229 215z" />
<glyph unicode="+" d="M20 565l21 307h348v369l348 21v-390h369l-21 -307h-348v-368l-348 -21v389h-369z" />
<glyph unicode="," horiz-adv-x="548" d="M-63 -334q107 186 131 334t-19 334l332 28q40 -177 -4 -347t-162 -377z" />
<glyph unicode="-" horiz-adv-x="686" d="M20 350l60 307h543l-60 -307h-543z" />
<glyph unicode="." horiz-adv-x="548" d="M18 145q0 92 64 156t154 64q76 0 124 -47t48 -121q0 -91 -65.5 -154t-154.5 -63q-75 0 -122.5 46.5t-47.5 118.5z" />
<glyph unicode="/" horiz-adv-x="776" d="M-203 -156l903 1872l306 -8l-906 -1872z" />
<glyph unicode="0" horiz-adv-x="1392" d="M74 545q0 215 53 388.5t148.5 288t227.5 175.5t290 61q124 0 220 -31.5t168 -97.5t110 -176t38 -260q0 -215 -53 -388.5t-148.5 -288t-227.5 -175.5t-290 -61q-124 0 -220 31.5t-168 97.5t-110 176t-38 260zM481 551q0 -223 156 -223q127 0 204 151t77 402 q0 229 -156 229q-130 0 -205.5 -150.5t-75.5 -408.5z" />
<glyph unicode="1" horiz-adv-x="813" d="M49 905l45 377l404 156h307l-176 -1438h-389l125 1028z" />
<glyph unicode="2" horiz-adv-x="1144" d="M-18 0l20 348q330 198 494.5 348t177.5 271q9 70 -30 106.5t-134 36.5q-127 0 -358 -68l-23 344q281 72 477 72q520 0 457 -491q-20 -167 -157 -324.5t-380 -294.5h516l-61 -348h-999z" />
<glyph unicode="3" horiz-adv-x="1134" d="M-35 51l107 344q222 -67 372 -67q209 0 209 118q0 52 -53 99h-291l64 348h229q80 60 80 125q0 92 -164 92q-127 0 -358 -68l-23 344q281 72 477 72q106 0 189.5 -18t147.5 -56.5t98 -102.5t34 -151q0 -136 -62.5 -232t-186.5 -167q206 -115 206 -309q0 -111 -47 -196.5 t-131 -138.5t-195 -80t-245 -27q-259 0 -457 71z" />
<glyph unicode="4" horiz-adv-x="1196" d="M-12 248l22 348q156 188 241 389.5t116 452.5h387q-33 -267 -122 -453t-259 -389h241l33 268l393 21l-36 -289h161l-63 -348h-141l-29 -248h-389l28 248h-583z" />
<glyph unicode="5" horiz-adv-x="1114" d="M-14 51l106 344q222 -67 352 -67q102 0 160 43t58 114q0 95 -170 95h-381l106 858h875l-64 -348h-506l-28 -232q105 21 186 21q96 0 169 -29t115.5 -80t63.5 -114t21 -136q0 -117 -37.5 -214t-112 -170.5t-196.5 -114.5t-281 -41q-238 0 -436 71z" />
<glyph unicode="6" horiz-adv-x="1253" d="M72 514q0 184 38.5 339t107.5 265.5t163.5 187.5t207 114.5t238.5 37.5q207 0 400 -51l-109 -344h-1h-1l-1 1h-1h-1h-1l-1 1h-1h-1h-1l-1 1h-1h-1h-1l-1 1h-1h-1h-2l-1 1h-1h-1h-1l-1 1h-1h-1h-1q-148 35 -212 39q-28 2 -64 2q-227 0 -299 -266q148 71 297 71 q79 0 145.5 -21.5t119.5 -65t83.5 -117t30.5 -170.5q0 -253 -168 -407t-455 -154q-232 0 -364.5 134t-132.5 400zM481 520q0 -120 33.5 -166.5t97.5 -46.5q85 0 137 55t52 138q0 110 -127 110q-72 0 -193 -37v-53z" />
<glyph unicode="7" horiz-adv-x="1019" d="M51 1090l64 348h979l-23 -348q-260 -272 -385.5 -520t-163.5 -570h-389q29 238 106 436t190 352t278 302h-656z" />
<glyph unicode="8" horiz-adv-x="1249" d="M20 317q0 271 293 414q-166 113 -166 285q0 65 22 127.5t68.5 120t113 100.5t162 68.5t208.5 25.5q119 0 212.5 -28.5t149.5 -78t84.5 -111t28.5 -130.5q0 -235 -248 -379q207 -116 207 -309q0 -111 -46 -196.5t-129.5 -138.5t-194.5 -80t-246 -27q-244 0 -381.5 84 t-137.5 253zM418 397q0 -41 41.5 -65.5t120.5 -24.5q92 0 140 31.5t48 85.5q0 41 -35 85t-119 77q-60 -21 -102 -49t-60.5 -55t-26 -47.5t-7.5 -37.5zM535 1018q0 -24 8.5 -48.5t35.5 -53t70 -44.5q45 15 78 40t48 51t21.5 45t6.5 32q0 37 -29.5 63.5t-93.5 26.5 q-75 0 -110 -35t-35 -77z" />
<glyph unicode="9" horiz-adv-x="1253" d="M37 31l108 344q96 -22 127 -29t77.5 -12.5t99.5 -5.5q227 0 299 266q-144 -72 -297 -72q-78 0 -145 21.5t-120 65.5t-83.5 117.5t-30.5 170.5q0 253 167.5 407t454.5 154q232 0 365 -134t133 -400q0 -230 -59.5 -412t-163 -297t-239.5 -175t-294 -60q-206 0 -399 51z M463 938q0 -111 127 -111q78 0 190 37q0 8 1 26.5t1 27.5q0 120 -33.5 166t-97.5 46q-85 0 -136.5 -54.5t-51.5 -137.5z" />
<glyph unicode=":" horiz-adv-x="548" d="M18 145q0 92 64 156t154 64q76 0 124 -47t48 -121q0 -91 -65.5 -154t-154.5 -63q-75 0 -122.5 46.5t-47.5 118.5zM100 809q0 92 63.5 155.5t153.5 63.5q76 0 124 -47t48 -121q0 -91 -65 -154t-154 -63q-75 0 -122.5 47t-47.5 119z" />
<glyph unicode=";" horiz-adv-x="548" d="M-63 -334q107 186 131 334t-19 334l332 28q40 -177 -4 -347t-162 -377zM63 809q0 92 64 155.5t154 63.5q76 0 124 -47t48 -121q0 -91 -65.5 -154t-154.5 -63q-75 0 -122.5 47t-47.5 119z" />
<glyph unicode="&#x3c;" d="M61 569l21 308l868 401l113 -287l-645 -272l645 -273l-113 -286z" />
<glyph unicode="=" d="M20 258l21 307h1065l-21 -307h-1065zM20 872l21 308h1065l-21 -308h-1065z" />
<glyph unicode="&#x3e;" d="M63 446l646 273l-646 272l113 287l889 -410l-21 -307l-868 -401z" />
<glyph unicode="?" horiz-adv-x="1064" d="M129 1386q281 72 477 72q102 0 184 -17.5t147.5 -55t101.5 -103t36 -154.5q0 -146 -92.5 -266t-288.5 -196l-26 -185l-351 -20l37 373q157 17 239.5 71.5t82.5 116.5q0 88 -166 88q-127 0 -358 -68zM262 145q0 92 63.5 156t153.5 64q76 0 124 -47t48 -121q0 -91 -65 -154 t-154 -63q-75 0 -122.5 46.5t-47.5 118.5z" />
<glyph unicode="@" horiz-adv-x="2060" d="M82 313q0 221 52 403.5t144 311.5t221 217t281.5 130t325.5 42q393 0 612 -202t219 -580q0 -316 -134 -485.5t-369 -169.5q-93 0 -154 45t-84 129q-84 -84 -184 -129t-195 -45q-78 0 -138.5 31t-97 86t-55 124.5t-18.5 151.5q0 276 145 447t385 171q264 0 467 -153 l-65 -541q3 -35 37 -35q70 0 107.5 99.5t37.5 273.5q0 243 -135.5 369t-380.5 126q-121 0 -225.5 -29t-194.5 -92t-153.5 -157.5t-99.5 -231.5t-36 -307q0 -233 128.5 -351t367.5 -118q172 0 330 70l110 -268q-201 -88 -440 -88q-384 0 -597.5 198.5t-213.5 556.5zM850 418 q0 -121 57 -121q36 0 96.5 44.5t124.5 125.5l23 178q-62 39 -129 39q-77 0 -124.5 -66.5t-47.5 -199.5z" />
<glyph unicode="A" horiz-adv-x="1366" d="M-72 0l574 1427l540 21l232 -1448h-397l-29 236h-428l-86 -236h-406zM545 584h258l-64 526z" />
<glyph unicode="B" horiz-adv-x="1269" d="M23 20l174 1418h649q180 0 276.5 -91.5t96.5 -230.5q0 -239 -250 -385q207 -116 207 -309q0 -148 -84 -248.5t-230.5 -147t-349.5 -46.5q-261 0 -489 40zM451 336q60 -8 135 -8q97 0 149.5 31.5t52.5 86.5q0 52 -53 99h-260zM518 893h219q82 61 82 127q0 31 -22 50.5 t-62 19.5h-192z" />
<glyph unicode="C" horiz-adv-x="1218" d="M78 559q0 196 42.5 351.5t114.5 256.5t172 168t209 95t232 28q206 0 399 -51l-108 -344h-1h-1l-1 1h-1h-1h-1l-1 1h-1h-1h-1l-1 1h-1h-1h-1l-1 1h-1h-1h-2l-1 1h-1h-1h-1l-1 1h-1h-1h-1q-148 35 -212 39q-28 2 -64 2q-80 0 -140 -24.5t-108 -81.5t-73.5 -160t-25.5 -250 t61.5 -206.5t188.5 -59.5q53 0 100.5 5.5t82 12.5t133.5 29l22 -344q-206 -51 -411 -51q-131 0 -235 31t-185 97.5t-124.5 180.5t-43.5 270z" />
<glyph unicode="D" horiz-adv-x="1409" d="M25 39l172 1399h557q283 0 435 -141.5t152 -430.5q0 -432 -226 -659t-628 -227q-226 0 -462 59zM451 338q51 -10 120 -10q177 0 268 131t91 360q0 271 -223 271h-164z" />
<glyph unicode="E" horiz-adv-x="1140" d="M20 0l177 1438h977l-64 -348h-567l-25 -197h465l-63 -348h-445l-24 -197h587l-61 -348h-957z" />
<glyph unicode="F" horiz-adv-x="1099" d="M20 0l177 1438h977l-64 -348h-567l-35 -281h465l-64 -348h-444l-55 -461h-390z" />
<glyph unicode="G" horiz-adv-x="1366" d="M78 557q0 142 23 262.5t63 212t98 164t125.5 121t147.5 81t162 46.5t171 14q218 0 420 -51l-108 -344q-190 47 -324 47q-85 0 -150 -27t-115 -86t-76 -160.5t-26 -242.5q0 -145 60.5 -205.5t189.5 -60.5q42 0 92 4l21 166h-178l63 348h547l-94 -776q-258 -90 -510 -90 q-602 0 -602 577z" />
<glyph unicode="H" horiz-adv-x="1392" d="M20 0l177 1438h389l-68 -545h410l67 545h389l-176 -1438h-389l66 545h-410l-65 -545h-390z" />
<glyph unicode="I" horiz-adv-x="593" d="M20 0l177 1438h389l-176 -1438h-390z" />
<glyph unicode="J" horiz-adv-x="645" d="M-141 -94q115 95 173.5 178.5t71.5 185.5l144 1168h389l-143 -1168q-25 -199 -109.5 -328.5t-261.5 -260.5z" />
<glyph unicode="K" horiz-adv-x="1345" d="M20 0l177 1438h389l-72 -580l477 590l447 -21l-594 -710l440 -707l-450 -20l-353 594l-71 -584h-390z" />
<glyph unicode="L" horiz-adv-x="1079" d="M20 0l177 1438h389l-135 -1090h546l-61 -348h-916z" />
<glyph unicode="M" horiz-adv-x="1875" d="M-41 0l365 1427l479 21l110 -950l334 929l479 21l27 -1448h-381l39 987l-354 -977l-404 -20l-116 997l-201 -987h-377z" />
<glyph unicode="N" horiz-adv-x="1392" d="M20 0l175 1427l360 21l354 -789l97 779h378l-176 -1428l-360 -20l-354 788l-95 -778h-379z" />
<glyph unicode="O" horiz-adv-x="1515" d="M72 575q0 208 58.5 376.5t162.5 278.5t246 169t311 59q135 0 241.5 -33.5t187 -103.5t124 -186t43.5 -273q0 -208 -58.5 -376t-162.5 -278t-246 -169t-311 -59q-135 0 -241.5 33.5t-187 103t-124 185.5t-43.5 273zM477 586q0 -258 211 -258q68 0 129.5 31t112 92 t80.5 164.5t30 236.5q0 258 -213 258q-54 0 -104 -18.5t-95 -60t-78.5 -101.5t-53 -148.5t-19.5 -195.5z" />
<glyph unicode="P" horiz-adv-x="1236" d="M20 0l177 1438h524q243 0 377.5 -108t134.5 -320q0 -117 -33 -216.5t-92.5 -171.5t-140.5 -122.5t-177 -75.5t-202 -25q-32 0 -129 9l-49 -408h-390zM502 758q77 -10 98 -10q95 0 157 50.5t62 155.5q0 136 -182 136h-94z" />
<glyph unicode="Q" horiz-adv-x="1515" d="M72 575q0 208 58.5 376.5t162.5 278.5t246 169t311 59q135 0 241.5 -33.5t187 -103.5t124 -186t43.5 -273q0 -264 -91.5 -458.5t-254.5 -301.5q6 -74 35.5 -113.5t72.5 -39.5q21 0 131 31l7 -316q-156 -43 -289 -43q-136 0 -222 84t-114 277q-9 0 -27 -1t-26 -1 q-135 0 -241.5 33.5t-187 103t-124 185.5t-43.5 273zM477 586q0 -258 211 -258q68 0 129.5 31t112 92t80.5 164.5t30 236.5q0 258 -213 258q-54 0 -104 -18.5t-95 -60t-78.5 -101.5t-53 -148.5t-19.5 -195.5z" />
<glyph unicode="R" horiz-adv-x="1286" d="M20 0l177 1438h503q250 0 387.5 -106t137.5 -314q0 -167 -67.5 -291.5t-188.5 -198.5l205 -518l-451 -20l-139 440q-72 0 -121 8l-53 -438h-390zM504 768q48 -10 100 -10q100 0 165 51.5t65 161.5q0 69 -46 104t-147 35h-96z" />
<glyph unicode="S" horiz-adv-x="1179" d="M18 51l107 344q96 -29 222 -48t222 -19q74 0 106 44q26 37 26 79q0 9 -1 18q-2 15 -30.5 28t-72.5 23t-99.5 26t-113 34.5t-112 51.5t-97.5 74t-69 104.5t-26 141.5q0 107 35 196t108 160t198.5 110.5t293.5 39.5q255 0 459 -72l-109 -344q-97 29 -223 48.5t-221 19.5 q-74 0 -106 -45q-25 -35 -25 -74q0 -11 2 -22q2 -17 37.5 -31t90.5 -27.5t120.5 -31t130.5 -49t118.5 -74t87 -112t33.5 -157.5q0 -234 -157.5 -370.5t-477.5 -136.5q-259 0 -457 71z" />
<glyph unicode="T" horiz-adv-x="1196" d="M72 1090l63 348h1135l-64 -348h-362l-133 -1090h-389l133 1090h-383z" />
<glyph unicode="U" horiz-adv-x="1392" d="M80 487l117 951h389l-113 -906q-3 -30 -3 -55q0 -27 4 -47q8 -40 32.5 -62.5t59 -31t87.5 -8.5q106 0 161 42.5t69 161.5l112 906h389l-116 -951q-13 -108 -53 -193.5t-99 -144t-139 -96.5t-170.5 -55.5t-196.5 -17.5q-133 0 -235.5 28t-175.5 87t-104 159 q-20 66 -20 146q0 41 5 87z" />
<glyph unicode="V" horiz-adv-x="1361" d="M102 1427l396 21l137 -1120l409 1120l400 -21l-576 -1427h-536z" />
<glyph unicode="W" horiz-adv-x="1941" d="M102 1427l396 21l67 -1061l287 1040l451 21l36 -1061l322 1061l362 -21l-516 -1427h-452l-62 780l-250 -780h-473z" />
<glyph unicode="X" horiz-adv-x="1363" d="M-82 10l539 723l-365 694l432 21l193 -408l274 408l465 -21l-541 -720l365 -697l-432 -20l-195 405l-276 -405z" />
<glyph unicode="Y" horiz-adv-x="1363" d="M92 1427l445 21l168 -530l294 530l457 -21l-596 -888l-65 -539h-389l65 539z" />
<glyph unicode="Z" horiz-adv-x="1187" d="M-6 0l20 348l676 742h-588l64 348h1040l-22 -348l-676 -742h588l-62 -348h-1040z" />
<glyph unicode="[" horiz-adv-x="761" d="M61 -164l230 1880h598l-58 -307h-229l-156 -1266h250l-57 -307h-578z" />
<glyph unicode="\" horiz-adv-x="776" d="M25 1708l297 8l454 -1872l-297 -8z" />
<glyph unicode="]" horiz-adv-x="761" d="M-100 -164l55 307h229l156 1266h-250l57 307h578l-229 -1880h-596z" />
<glyph unicode="^" horiz-adv-x="1073" d="M-29 440l435 998h450l188 -998l-382 -20l-78 645l-234 -645z" />
<glyph unicode="_" horiz-adv-x="1019" d="M-121 -326l51 267h1000l-53 -267h-998z" />
<glyph unicode="`" horiz-adv-x="761" d="M199 1458h379l135 -344h-281z" />
<glyph unicode="a" horiz-adv-x="1146" d="M20 393q0 100 18 189t60.5 172t106.5 143t162.5 95.5t222.5 35.5q212 0 485 -102l-112 -926h-349l19 166q-105 -102 -187 -144t-157 -42q-123 0 -196 119.5t-73 293.5zM381 440q0 -71 15 -99t44 -28q38 0 102.5 48t131.5 133l22 186q-64 41 -135 41q-80 0 -130 -70 t-50 -211z" />
<glyph unicode="b" horiz-adv-x="1144" d="M29 82l178 1450l352 20l-88 -710q105 102 187 144t157 42q82 0 144 -57.5t93 -150.5t31 -206q0 -100 -18 -189t-60 -171.5t-106 -142.5t-162.5 -95.5t-222.5 -35.5q-212 0 -485 102zM408 328q64 -41 135 -41q80 0 130 69.5t50 210.5q0 71 -15 99t-44 28 q-38 0 -102.5 -47.5t-131.5 -132.5z" />
<glyph unicode="c" horiz-adv-x="923" d="M35 395q0 129 31.5 235.5t85.5 179.5t127.5 122.5t156.5 72.5t174 23q143 0 312 -35l-80 -299q-141 27 -228 27q-121 0 -171 -70t-50 -211q0 -74 26.5 -110.5t90.5 -36.5q95 0 289 86l41 -289q-210 -110 -389 -110q-190 0 -303 114.5t-113 300.5z" />
<glyph unicode="d" horiz-adv-x="1146" d="M20 393q0 147 41.5 268t112.5 200.5t166 123t203 43.5q97 0 192 -33l66 537l352 20l-190 -1552h-351l21 166q-105 -102 -187 -144t-157 -42q-123 0 -196 119.5t-73 293.5zM381 440q0 -71 15 -99t44 -28q38 0 102.5 48t131.5 133l22 186q-64 41 -135 41q-80 0 -130 -70 t-50 -211z" />
<glyph unicode="e" horiz-adv-x="989" d="M20 395q0 129 31.5 235.5t85.5 179.5t128 122.5t157 72.5t174 23q89 0 159 -24t110.5 -64.5t61.5 -88t21 -99.5q0 -175 -148 -285t-415 -135q-5 -27 15 -43.5t63 -16.5q108 0 321 97l41 -279q-217 -110 -397 -110q-188 0 -298 114t-110 301zM383 563q106 11 163.5 52.5 t57.5 82.5q0 21 -15 33t-42 12q-52 0 -103 -50.5t-61 -129.5z" />
<glyph unicode="f" horiz-adv-x="794" d="M-229 -408l61 291q92 -18 139 -18q58 0 85 31t36 106l84 698h-153l59 308h133l16 135q11 89 37 159t73.5 128.5t126 90t183.5 31.5q107 0 246 -34l-61 -291q-88 18 -140 18q-58 0 -85 -31t-36 -106l-12 -100h246l-59 -308h-226l-88 -733q-9 -71 -26 -129t-49 -111 t-77.5 -89.5t-113 -58t-152.5 -21.5q-108 0 -247 34z" />
<glyph unicode="g" horiz-adv-x="1146" d="M2 -367l78 299q232 -67 336 -67q77 0 134.5 37t65.5 118l17 146q-105 -102 -187 -144t-157 -42q-123 0 -196 119.5t-73 293.5q0 100 18 189t60.5 172t106.5 143t162.5 95.5t222.5 35.5q212 0 485 -102l-106 -873q-14 -110 -54.5 -196.5t-97 -141.5t-130.5 -91.5t-150 -51 t-160 -14.5q-208 0 -375 75zM381 440q0 -71 15 -99t44 -28q38 0 102.5 48t131.5 133l22 186q-64 41 -135 41q-80 0 -130 -70t-50 -211z" />
<glyph unicode="h" horiz-adv-x="1187" d="M20 0l187 1532l352 20l-88 -710q204 186 387 186q235 0 234 -249q0 -39 -5 -83l-83 -696h-349l74 606q1 12 1 22q0 66 -56 66q-69 0 -244 -180l-61 -514h-349z" />
<glyph unicode="i" horiz-adv-x="552" d="M20 0l121 997l353 21l-125 -1018h-349zM158 1276q0 91 65 154t154 63q76 0 123 -46t47 -118q0 -93 -63 -157t-154 -64q-76 0 -124 47t-48 121z" />
<glyph unicode="j" horiz-adv-x="604" d="M-139 -240q104 87 157 161t64 165l111 911l352 21l-115 -932q-15 -122 -56 -214t-105.5 -164t-170.5 -150zM209 1276q0 91 65 154t154 63q76 0 123 -46t47 -118q0 -93 -63 -157t-154 -64q-76 0 -124 47t-48 121z" />
<glyph unicode="k" horiz-adv-x="1150" d="M20 0l187 1532l352 20l-108 -880l288 346l400 -21l-408 -462l328 -525l-406 -20l-237 399l-47 -389h-349z" />
<glyph unicode="l" horiz-adv-x="645" d="M53 268l154 1264l352 20l-149 -1204q-1 -6 -1 -11q-1 -38 37 -44q9 -1 21 -1q40 0 106 17l-8 -291q-84 -21 -140.5 -29.5t-137.5 -8.5q-113 0 -183 72q-55 57 -55 158q0 27 4 58z" />
<glyph unicode="m" horiz-adv-x="1740" d="M20 0l121 997l353 21l-23 -176q189 186 363 186q191 0 215 -190q209 190 378 190q218 0 218 -249q0 -39 -5 -83l-84 -696h-348l72 606q1 13 1 24q0 64 -50 64q-24 0 -77.5 -44t-129.5 -136l-61 -514h-349l72 606q1 13 1 24q0 64 -50 64q-24 0 -77.5 -44t-129.5 -136 l-61 -514h-349z" />
<glyph unicode="n" horiz-adv-x="1187" d="M20 0l121 997l353 21l-23 -176q204 186 387 186q235 0 234 -249q0 -39 -5 -83l-83 -696h-349l74 606q1 12 1 22q0 66 -56 66q-69 0 -244 -180l-61 -514h-349z" />
<glyph unicode="o" horiz-adv-x="1093" d="M20 426q0 267 160 434.5t420 167.5q216 0 324 -115t108 -331q0 -267 -159.5 -434.5t-419.5 -167.5q-216 0 -324.5 115t-108.5 331zM377 446v-8q0 -151 117 -151q74 0 126.5 79t53.5 195v8q0 152 -115 152q-74 0 -127.5 -79.5t-54.5 -195.5z" />
<glyph unicode="p" horiz-adv-x="1144" d="M-33 -432l174 1429l353 21l-23 -176q105 102 187 144t157 42q82 0 144 -57.5t93 -150.5t31 -206q0 -147 -41 -268t-112.5 -200t-166 -122.5t-202.5 -43.5q-100 0 -192 32l-52 -424zM408 328q64 -41 135 -41q80 0 130 69.5t50 210.5q0 71 -15 99t-44 28 q-38 0 -102.5 -47.5t-131.5 -132.5z" />
<glyph unicode="q" horiz-adv-x="1146" d="M20 393q0 100 18 189t60.5 172t106.5 143t162.5 95.5t222.5 35.5q212 0 485 -102l-164 -1338l-350 -20l72 598q-105 -102 -187 -144t-157 -42q-123 0 -196 119.5t-73 293.5zM381 440q0 -71 15 -99t44 -28q38 0 102.5 48t131.5 133l22 186q-64 41 -135 41q-80 0 -130 -70 t-50 -211z" />
<glyph unicode="r" horiz-adv-x="860" d="M20 0l121 997l353 21l-23 -178q94 97 168 142.5t143 45.5q47 0 99 -22l-84 -371q-85 29 -133 29q-54 0 -107 -36.5t-129 -127.5l-59 -500h-349z" />
<glyph unicode="s" horiz-adv-x="942" d="M20 29l84 284q66 -22 155 -34.5t153 -12.5q37 0 60 17t17 51q-2 11 -35 19.5t-80 16t-101.5 27.5t-101 49t-77.5 85.5t-31 132.5q0 179 122 271.5t352 92.5q180 0 342 -49l-84 -285q-66 22 -155 34.5t-153 12.5q-37 0 -59 -16.5t-16 -50.5q2 -9 26 -16.5t62 -14.5t83 -18 t90 -32t82 -51.5t60 -82t23 -117.5q0 -172 -121 -267t-355 -95q-180 0 -342 49z" />
<glyph unicode="t" horiz-adv-x="835" d="M25 700l57 308h133l37 299l350 20l-39 -319h246l-59 -308h-226l-39 -321q-2 -18 -2 -31q0 -26 9 -34q6 -5 19 -5q40 0 142 45l47 21l41 -289q-185 -106 -354 -106q-128 0 -199 75q-62 66 -62 194q0 18 1 38l51 413h-153z" />
<glyph unicode="u" horiz-adv-x="1187" d="M59 311l82 686l353 21l-76 -617q-1 -12 -2 -22q0 -66 57 -66q69 0 244 181l59 503l352 21l-124 -1018h-349l21 166q-204 -186 -387 -186q-236 0 -236 248q0 39 6 83z" />
<glyph unicode="v" horiz-adv-x="1073" d="M39 997l385 21l74 -631q130 277 217 631l377 -21q-135 -558 -420 -997h-443z" />
<glyph unicode="w" horiz-adv-x="1589" d="M39 997l364 21l50 -686l192 665l377 21l29 -686q139 297 196 686l357 -21q-105 -556 -367 -997h-399l-68 481l-182 -481h-400z" />
<glyph unicode="x" horiz-adv-x="1073" d="M-82 10l365 494l-244 493l395 21l111 -264l160 264l407 -21l-375 -493l254 -494l-413 -20l-109 264l-162 -264z" />
<glyph unicode="y" horiz-adv-x="1073" d="M31 -264q129 120 237 264h-39l-190 997l385 21l74 -631q130 277 217 631l377 -21q-109 -450 -312 -817.5t-481 -632.5z" />
<glyph unicode="z" horiz-adv-x="987" d="M0 0l14 287l447 413h-387l59 308h813l-14 -287l-449 -414h387l-57 -307h-813z" />
<glyph unicode="{" horiz-adv-x="837" d="M35 623l57 307h90q52 1 77.5 33t33.5 104l33 260q12 99 50.5 179t96.5 132t130 79.5t154.5 24.5t166.5 -36l-58 -295q-25 9 -43 14t-46 4.5t-47 -12.5t-36 -43.5t-24 -81.5l-19 -157q-35 -268 -198 -359q141 -93 110 -358l-20 -158q-6 -49 3.5 -80t23.5 -43.5t44.5 -13.5 t46.5 2.5t50 12.5q14 3 20 5l-57 -299q-115 -44 -210 -33t-161 60.5t-96.5 142t-16.5 211.5l33 260q9 76 -10.5 107t-77.5 31h-100z" />
<glyph unicode="|" horiz-adv-x="634" d="M-37 -184l234 1900l309 21l-234 -1901z" />
<glyph unicode="}" horiz-adv-x="837" d="M-61 -154l57 295q25 -9 43.5 -14t46.5 -4.5t47.5 12.5t36.5 43.5t23 81.5l20 158q31 265 197 358q-144 95 -109 359l18 157q6 49 -3.5 80t-23.5 43.5t-44.5 13.5t-46.5 -2.5t-50 -12.5q-14 -3 -20 -5l57 299q91 33 172 34.5t142.5 -27.5t104 -82t60 -131.5t5.5 -174.5 l-33 -260q-9 -75 10.5 -106t77.5 -31h100l-57 -307h-90q-52 -1 -77.5 -33.5t-33.5 -104.5l-32 -260q-12 -99 -50.5 -179t-96 -132t-129.5 -79.5t-155 -24.5t-167 36z" />
<glyph unicode="~" d="M12 586q13 81 45.5 152t76 121.5t95.5 87t104.5 54t102.5 17.5q66 0 116 -16.5t76.5 -40t46 -47t37.5 -40t38 -16.5q24 0 49 29.5t37 95.5l301 -45q-17 -101 -62.5 -185t-105.5 -137t-126.5 -81.5t-129.5 -28.5q-67 0 -116.5 16.5t-76 40t-46 47t-38 40t-39.5 16.5 q-23 0 -47.5 -29.5t-38.5 -95.5z" />
<glyph unicode="&#xa1;" horiz-adv-x="716" d="M29 -430l137 956l350 21l-98 -977h-389zM184 809q0 92 63.5 155.5t153.5 63.5q76 0 124 -47t48 -121q0 -91 -65 -154t-154 -63q-75 0 -122.5 47t-47.5 119z" />
<glyph unicode="&#xa2;" horiz-adv-x="991" d="M82 791q0 280 117.5 441t318.5 208l29 227l291 21l-29 -236q88 -8 211 -31l-82 -301q-137 31 -254 31q-134 0 -190 -83.5t-56 -238.5q0 -87 43 -130.5t144 -43.5q113 0 260 31l6 -301q-113 -24 -217 -33l-27 -213l-289 -20l31 248q-307 73 -307 424z" />
<glyph unicode="&#xa3;" horiz-adv-x="1171" d="M10 0l10 348q75 44 110 66.5t87.5 63.5t81.5 79h-231l55 266h186q-24 34 -37 57t-26 68t-13 96q0 78 28 148.5t85.5 131.5t158 97.5t232.5 36.5q236 0 451 -51l-115 -344q-57 16 -140 27.5t-133.5 15.5t-64.5 4q-52 0 -74 -23t-22 -53q0 -16 16 -34.5t37 -36.5t43 -55.5 t31 -84.5h324l-56 -266h-311q-73 -150 -184 -207h530q-4 -22 -10.5 -58.5t-21 -113t-23.5 -127.5t-8 -51h-996z" />
<glyph unicode="&#xa4;" d="M23 410l137 137q-29 82 -29 172q0 88 29 170l-137 139l245 217l123 -125q79 31 172 31q91 0 170 -31l125 125l246 -217l-139 -139q30 -77 30 -170q0 -95 -30 -172l139 -137l-246 -217l-125 122q-79 -28 -170 -28q-93 0 -172 28l-123 -122zM416 719q0 -66 40.5 -107 t106.5 -41t107 41t41 107t-41 106.5t-107 40.5t-106.5 -40.5t-40.5 -106.5z" />
<glyph unicode="&#xa5;" horiz-adv-x="1363" d="M92 1427l445 21l168 -530l294 530l457 -21l-366 -546h151l-53 -267h-277l-51 -75l-2 -7h340l-53 -266h-318l-32 -266h-389l32 266h-340l54 266h317l2 7l-33 75h-297l54 267h129z" />
<glyph unicode="&#xa6;" horiz-adv-x="634" d="M-37 -184l96 786l310 21l-97 -787zM100 930l97 786l309 21l-96 -787z" />
<glyph unicode="&#xa7;" horiz-adv-x="1404" d="M35 -391l108 344q75 -20 191 -35q11 92 -11 188.5t-61 181t-79.5 167t-70.5 177.5t-30 183q0 131 43 239.5t117 182t175 124.5t214 74t237 23q255 0 461 -51l-108 -344q-82 22 -193 35q-10 -92 12 -188.5t61.5 -181.5t80 -168t70.5 -177.5t30 -181.5q0 -131 -43 -239.5 t-117 -182t-175 -124.5t-214 -74t-237 -23q-255 0 -461 51zM453 850q0 -55 30 -133t71 -162t80 -179.5t59.5 -215.5t6.5 -240q99 23 155 84t56 162q0 55 -30 132.5t-71 161.5t-80.5 179.5t-60 216t-7.5 240.5q-97 -23 -153 -84.5t-56 -161.5z" />
<glyph unicode="&#xa8;" horiz-adv-x="1024" d="M178 1280q0 77 54.5 130.5t129.5 53.5q65 0 105.5 -39t40.5 -100q0 -79 -53.5 -133.5t-130.5 -54.5q-66 0 -106 40t-40 103zM670 1280q0 77 54.5 130.5t129.5 53.5q64 0 104.5 -38.5t40.5 -100.5q0 -79 -53.5 -133.5t-130.5 -54.5q-65 0 -105 39.5t-40 103.5z" />
<glyph unicode="&#xa9;" horiz-adv-x="1601" d="M59 610q0 182 66 340.5t178.5 269.5t267 174.5t326.5 63.5q298 0 476.5 -173.5t178.5 -457.5q0 -182 -65.5 -340.5t-178 -269t-267 -174t-326.5 -63.5q-298 0 -477 173t-179 457zM293 641q0 -202 122 -326.5t326 -124.5q118 0 224.5 46t184.5 125.5t123.5 193t45.5 242.5 q0 202 -122.5 326t-326.5 124q-158 0 -290 -77.5t-209.5 -217t-77.5 -311.5zM446 629q0 109 24 195.5t64.5 142t96.5 92t116.5 52t129.5 15.5q108 0 221 -30l-68 -211q-16 4 -41.5 9.5t-35 7.5t-25.5 5t-28.5 3.5t-29.5 0.5q-174 0 -174 -245q0 -75 32.5 -107.5t94.5 -32.5 q21 0 40 2t30 4t43.5 9.5t52.5 11.5l17 -211q-124 -31 -230 -31q-151 0 -240.5 75.5t-89.5 242.5z" />
<glyph unicode="&#xaa;" horiz-adv-x="729" d="M82 1065q0 75 18 141.5t58 126t114.5 94.5t176.5 35q135 0 313 -65l-72 -582h-239l10 96q-115 -108 -209 -108q-77 0 -123.5 76.5t-46.5 185.5zM332 1098q0 -64 28 -64q19 0 54 24.5t75 71.5l11 97q-32 22 -72 22q-43 0 -69.5 -38t-26.5 -113z" />
<glyph unicode="&#xab;" horiz-adv-x="1255" d="M10 422l43 184l414 371l199 -281l-234 -213l182 -213l-264 -239zM563 422l43 184l414 371l199 -281l-234 -213l182 -213l-264 -239z" />
<glyph unicode="&#xac;" d="M20 565l21 307h1055v-675l-348 -21v389h-728z" />
<glyph unicode="&#xad;" horiz-adv-x="686" d="M20 350l60 307h543l-60 -307h-543z" />
<glyph unicode="&#xae;" horiz-adv-x="864" d="M106 1032q0 184 121.5 305t300.5 121q150 0 240 -86.5t90 -228.5q0 -184 -121.5 -305t-300.5 -121q-150 0 -240 86.5t-90 228.5zM225 1049q0 -102 61 -164t165 -62q121 0 204.5 86t83.5 217q0 102 -60.5 164t-162.5 62h-2q-121 0 -205 -86t-84 -217zM305 887l47 397h150 q70 0 108.5 -31t38.5 -90q0 -91 -71 -139q6 -29 24 -29q2 0 35 11v-107q-52 -18 -84 -18q-39 0 -62 26t-32 88q-15 0 -23 2l-12 -110h-119zM451 1104q16 -4 22 -4q47 0 53 43q0 21 -9 30t-36 9h-22z" />
<glyph unicode="&#xaf;" horiz-adv-x="882" d="M160 1137l49 245h657l-49 -245h-657z" />
<glyph unicode="&#xb0;" horiz-adv-x="720" d="M96 1092q0 158 104.5 262t256.5 104q128 0 205 -75t77 -197q0 -158 -104 -262.5t-256 -104.5q-128 0 -205.5 75.5t-77.5 197.5zM330 1120q0 -76 76 -76q45 0 71.5 31t26.5 82q0 76 -76 76q-45 0 -71.5 -31t-26.5 -82z" />
<glyph unicode="&#xb1;" d="M20 0l21 307h1065l-21 -307h-1065zM20 709l21 307h348v307l348 20v-327h369l-21 -307h-348v-308l-348 -20v328h-369z" />
<glyph unicode="&#xb2;" horiz-adv-x="686" d="M72 942l12 195q206 116 304.5 200t98.5 158q0 66 -100 66q-88 0 -217 -37l-18 192q185 41 292 41q285 0 285 -227q0 -222 -326 -393h316l-39 -195h-608z" />
<glyph unicode="&#xb3;" horiz-adv-x="686" d="M61 971l64 192q132 -39 227 -39q127 0 127 66q0 30 -35 57h-176l37 193h139q50 36 50 71q0 50 -103 50q-85 0 -217 -37l-18 192q185 41 293 41q134 0 211 -45.5t77 -142.5q0 -143 -149 -217q125 -65 125 -172q0 -124 -101 -186t-272 -62q-163 0 -279 39z" />
<glyph unicode="&#xb4;" horiz-adv-x="761" d="M156 1114l209 344h391l-307 -344h-293z" />
<glyph unicode="&#xb5;" horiz-adv-x="1187" d="M-33 -432l174 1429l353 21l-76 -617q-10 -88 55 -88q69 0 244 181l59 503l352 21l-124 -1018h-349l21 166q-204 -186 -387 -186h-23l35 -392z" />
<glyph unicode="&#xb6;" horiz-adv-x="1112" d="M72 1118q0 141 89 230.5t230 89.5h721l-8 -201h-113v-1237h-209v1237h-127v-1237h-188v799h-76q-141 0 -230 89t-89 230z" />
<glyph unicode="&#xb7;" horiz-adv-x="548" d="M86 692q0 92 63.5 155.5t153.5 63.5q76 0 124 -47t48 -121q0 -91 -65 -154t-154 -63q-75 0 -122.5 47t-47.5 119z" />
<glyph unicode="&#xb8;" horiz-adv-x="643" d="M-33 -418l56 168q79 -24 133 -24q55 0 55 24q0 13 -10.5 23t-32.5 10q-19 0 -62 -16l-59 127l82 126h221l-76 -94q154 -5 154 -149q0 -60 -26 -104.5t-70 -68.5t-92.5 -35t-102.5 -11q-87 0 -170 24z" />
<glyph unicode="&#xb9;" horiz-adv-x="665" d="M82 942l39 195h170l45 379l-193 -68l27 211l244 86h188l-74 -608h162l-37 -195h-571z" />
<glyph unicode="&#xba;" horiz-adv-x="692" d="M82 1085q0 167 102.5 271t270.5 104q138 0 207 -74t69 -212q0 -165 -102.5 -269t-270.5 -104q-139 0 -207.5 73.5t-68.5 210.5zM330 1100q-2 -43 11.5 -64.5t47.5 -21.5q37 0 64.5 42t27.5 103q2 45 -11 66.5t-46 21.5q-38 0 -65.5 -42t-28.5 -105z" />
<glyph unicode="&#xbb;" horiz-adv-x="1255" d="M-6 311l235 213l-184 213l264 240l342 -391l-43 -185l-415 -370zM547 311l235 213l-184 213l264 240l342 -391l-43 -185l-416 -370z" />
<glyph unicode="&#xbc;" horiz-adv-x="1617" d="M37 635l39 194h170l45 379l-193 -67l27 211l244 86h188l-74 -609h162l-37 -194h-571zM254 0l893 1438h264l-893 -1438h-264zM860 139l12 195q93 103 143.5 215.5t67.5 253.5h236q-18 -148 -70.5 -252t-154.5 -217h120l15 125l241 12l-16 -137h80l-37 -195h-67l-17 -139 h-239l16 139h-330z" />
<glyph unicode="&#xbd;" horiz-adv-x="1691" d="M37 635l39 194h170l45 379l-193 -67l27 211l244 86h188l-74 -609h162l-37 -194h-571zM254 0l893 1438h264l-893 -1438h-264zM944 0l12 195q207 116 305.5 200t98.5 158q0 65 -100 65q-93 0 -218 -36l-18 192q185 41 293 41q285 0 285 -227q0 -222 -326 -393h315l-39 -195 h-608z" />
<glyph unicode="&#xbe;" horiz-adv-x="1622" d="M41 664l63 192q132 -39 228 -39q127 0 127 66q0 30 -35 57h-176l37 193h139q49 35 49 71q0 49 -102 49q-89 0 -217 -36l-19 192q185 41 293 41q134 0 211.5 -45.5t77.5 -142.5q0 -143 -150 -218q125 -65 125 -172q0 -124 -101 -185.5t-272 -61.5q-162 0 -278 39zM258 0 l893 1438h264l-893 -1438h-264zM864 139l13 195q93 103 143 215.5t67 253.5h236q-18 -148 -70.5 -252t-154.5 -217h121l14 125l242 12l-17 -137h80l-37 -195h-67l-17 -139h-239l16 139h-330z" />
<glyph unicode="&#xbf;" horiz-adv-x="1064" d="M-53 -121q0 146 92.5 266.5t288.5 196.5l26 184l351 21l-37 -373q-157 -17 -239.5 -71.5t-82.5 -116.5q0 -88 166 -88q130 0 358 67l23 -344q-281 -72 -477 -72q-102 0 -184 17.5t-147.5 55t-101.5 103t-36 154.5zM371 811q0 91 65 154t154 63q75 0 122.5 -47t47.5 -119 q0 -92 -63.5 -155.5t-153.5 -63.5q-76 0 -124 47t-48 121z" />
<glyph unicode="&#xc0;" horiz-adv-x="1366" d="M-72 0l574 1427l540 21l232 -1448h-397l-29 236h-428l-86 -236h-406zM393 1843h461l203 -303h-363zM545 584h258l-64 526z" />
<glyph unicode="&#xc1;" horiz-adv-x="1366" d="M-72 0l574 1427l540 21l232 -1448h-397l-29 236h-428l-86 -236h-406zM500 1540l264 303h473l-363 -303h-374zM545 584h258l-64 526z" />
<glyph unicode="&#xc2;" horiz-adv-x="1366" d="M-72 0l574 1427l540 21l232 -1448h-397l-29 236h-428l-86 -236h-406zM356 1540l252 303h434l179 -303h-349l-67 123l-96 -123h-353zM545 584h258l-64 526z" />
<glyph unicode="&#xc3;" horiz-adv-x="1366" d="M-72 0l574 1427l540 21l232 -1448h-397l-29 236h-428l-86 -236h-406zM406 1571q23 142 107 222.5t181 80.5q54 0 98 -17.5t65.5 -39t41 -39t29.5 -17.5q47 0 65 88l215 -37q-23 -142 -107 -222.5t-181 -80.5q-54 0 -98 17.5t-65.5 39t-41 39t-29.5 17.5q-48 0 -68 -88z M545 584h258l-64 526z" />
<glyph unicode="&#xc4;" horiz-adv-x="1366" d="M-72 0l574 1427l540 21l232 -1448h-397l-29 236h-428l-86 -236h-406zM395 1671q0 77 55.5 132t131.5 55q64 0 104.5 -39t40.5 -101q0 -79 -55 -133.5t-131 -54.5q-64 0 -105 39.5t-41 101.5zM545 584h258l-64 526zM887 1671q0 77 55 132t131 55q64 0 105 -39t41 -101 q0 -79 -55.5 -133.5t-131.5 -54.5q-64 0 -104.5 39.5t-40.5 101.5z" />
<glyph unicode="&#xc5;" horiz-adv-x="1366" d="M-72 0l574 1427l174 7q-60 22 -93.5 71.5t-33.5 118.5q0 118 81.5 195t200.5 77q102 0 164 -56.5t62 -149.5q0 -85 -44.5 -150.5t-117.5 -97.5l147 6l232 -1448h-397l-29 236h-428l-86 -236h-406zM545 584h258l-64 526zM733 1642q0 -57 62 -57q36 0 56.5 23.5t20.5 62.5 q0 58 -61 58q-36 0 -57 -24t-21 -63z" />
<glyph unicode="&#xc6;" horiz-adv-x="1961" d="M-102 0l903 1438h1194l-64 -348h-567l-25 -197h465l-63 -348h-445l-24 -197h588l-64 -348h-954l28 236h-399l-135 -236h-438zM668 584h243l68 540z" />
<glyph unicode="&#xc7;" horiz-adv-x="1218" d="M78 559q0 196 42.5 351.5t114.5 256.5t172 168t209 95t232 28q206 0 399 -51l-108 -344h-1h-1l-1 1h-1h-1h-1l-1 1h-1h-1h-1l-1 1h-1h-1h-1l-1 1h-1h-1h-2l-1 1h-1h-1h-1l-1 1h-1h-1h-1q-148 35 -212 39q-28 2 -64 2q-80 0 -140 -24.5t-108 -81.5t-73.5 -160t-25.5 -250 t61.5 -206.5t188.5 -59.5q53 0 100.5 5.5t82 12.5t133.5 29l22 -344q-150 -39 -325 -49l-45 -56q153 -5 153 -149q0 -60 -26 -104.5t-70 -68.5t-92.5 -35t-102.5 -11q-87 0 -170 24l56 168q79 -24 133 -24q55 0 55 24q0 13 -10.5 23t-32.5 10q-18 0 -61 -16l-60 127l60 94 q-217 28 -339 166t-122 405z" />
<glyph unicode="&#xc8;" horiz-adv-x="1140" d="M20 0l177 1438h977l-64 -348h-567l-25 -197h465l-63 -348h-445l-24 -197h587l-61 -348h-957zM322 1843h460l203 -303h-362z" />
<glyph unicode="&#xc9;" horiz-adv-x="1140" d="M20 0l177 1438h977l-64 -348h-567l-25 -197h465l-63 -348h-445l-24 -197h587l-61 -348h-957zM408 1540l264 303h473l-363 -303h-374z" />
<glyph unicode="&#xca;" horiz-adv-x="1140" d="M20 0l177 1438h977l-64 -348h-567l-25 -197h465l-63 -348h-445l-24 -197h587l-61 -348h-957zM264 1540l252 303h434l178 -303h-348l-67 123l-97 -123h-352z" />
<glyph unicode="&#xcb;" horiz-adv-x="1140" d="M20 0l177 1438h977l-64 -348h-567l-25 -197h465l-63 -348h-445l-24 -197h587l-61 -348h-957zM303 1671q0 77 55 132t131 55q64 0 105 -39t41 -101q0 -79 -55 -133.5t-131 -54.5q-64 0 -105 39.5t-41 101.5zM795 1671q0 77 55 132t131 55q64 0 104.5 -39t40.5 -101 q0 -79 -55 -133.5t-131 -54.5q-64 0 -104.5 39.5t-40.5 101.5z" />
<glyph unicode="&#xcc;" horiz-adv-x="593" d="M-63 1843h460l203 -303h-362zM20 0l177 1438h389l-176 -1438h-390z" />
<glyph unicode="&#xcd;" horiz-adv-x="593" d="M20 0l177 1438h389l-176 -1438h-390zM207 1540l264 303h473l-362 -303h-375z" />
<glyph unicode="&#xce;" horiz-adv-x="593" d="M-29 1540l252 303h434l179 -303h-349l-67 123l-96 -123h-353zM20 0l177 1438h389l-176 -1438h-390z" />
<glyph unicode="&#xcf;" horiz-adv-x="593" d="M10 1671q0 77 55.5 132t131.5 55q64 0 104.5 -39t40.5 -101q0 -79 -55 -133.5t-131 -54.5q-64 0 -105 39.5t-41 101.5zM20 0l177 1438h389l-176 -1438h-390zM502 1671q0 77 55 132t131 55q64 0 105 -39t41 -101q0 -79 -55.5 -133.5t-131.5 -54.5q-64 0 -104.5 39.5 t-40.5 101.5z" />
<glyph unicode="&#xd0;" horiz-adv-x="1409" d="M-8 596l49 246h82l74 596h557q283 0 435 -141.5t152 -430.5q0 -432 -226 -659t-628 -227q-226 0 -462 59l67 557h-100zM451 338q51 -10 120 -10q177 0 268 131t91 360q0 271 -223 271h-164l-31 -248h186l-49 -246h-168z" />
<glyph unicode="&#xd1;" horiz-adv-x="1392" d="M20 0l175 1427l360 21l354 -789l97 779h378l-176 -1428l-360 -20l-354 788l-95 -778h-379zM420 1571q23 142 107.5 222.5t181.5 80.5q54 0 97.5 -17.5t65.5 -39t41 -39t29 -17.5q48 0 66 88l215 -37q-23 -142 -107.5 -222.5t-181.5 -80.5q-54 0 -98 17.5t-65.5 39t-41 39 t-29.5 17.5q-47 0 -67 -88z" />
<glyph unicode="&#xd2;" horiz-adv-x="1515" d="M76 575q0 208 58.5 376.5t162.5 278.5t246 169t311 59q135 0 241.5 -33.5t187 -103.5t124 -186t43.5 -273q0 -208 -58.5 -376t-162.5 -278t-246 -169t-311 -59q-135 0 -241.5 33.5t-187 103t-124 185.5t-43.5 273zM469 1843h461l203 -303h-363zM481 586q0 -258 211 -258 q68 0 129.5 31t112 92t80.5 164.5t30 236.5q0 258 -213 258q-54 0 -104 -18.5t-95 -60t-78.5 -101.5t-53 -148.5t-19.5 -195.5z" />
<glyph unicode="&#xd3;" horiz-adv-x="1515" d="M76 575q0 208 58.5 376.5t162.5 278.5t246 169t311 59q135 0 241.5 -33.5t187 -103.5t124 -186t43.5 -273q0 -208 -58.5 -376t-162.5 -278t-246 -169t-311 -59q-135 0 -241.5 33.5t-187 103t-124 185.5t-43.5 273zM481 586q0 -258 211 -258q68 0 129.5 31t112 92 t80.5 164.5t30 236.5q0 258 -213 258q-54 0 -104 -18.5t-95 -60t-78.5 -101.5t-53 -148.5t-19.5 -195.5zM596 1540l264 303h473l-362 -303h-375z" />
<glyph unicode="&#xd4;" horiz-adv-x="1515" d="M76 575q0 208 58.5 376.5t162.5 278.5t246 169t311 59q135 0 241.5 -33.5t187 -103.5t124 -186t43.5 -273q0 -208 -58.5 -376t-162.5 -278t-246 -169t-311 -59q-135 0 -241.5 33.5t-187 103t-124 185.5t-43.5 273zM432 1540l252 303h434l178 -303h-348l-67 123l-97 -123 h-352zM481 586q0 -258 211 -258q68 0 129.5 31t112 92t80.5 164.5t30 236.5q0 258 -213 258q-54 0 -104 -18.5t-95 -60t-78.5 -101.5t-53 -148.5t-19.5 -195.5z" />
<glyph unicode="&#xd5;" horiz-adv-x="1515" d="M76 575q0 208 58.5 376.5t162.5 278.5t246 169t311 59q135 0 241.5 -33.5t187 -103.5t124 -186t43.5 -273q0 -208 -58.5 -376t-162.5 -278t-246 -169t-311 -59q-135 0 -241.5 33.5t-187 103t-124 185.5t-43.5 273zM481 586q0 -258 211 -258q68 0 129.5 31t112 92 t80.5 164.5t30 236.5q0 258 -213 258q-54 0 -104 -18.5t-95 -60t-78.5 -101.5t-53 -148.5t-19.5 -195.5zM481 1571q23 142 107.5 222.5t181.5 80.5q54 0 98 -17.5t65.5 -39t41 -39t29.5 -17.5q47 0 65 88l215 -37q-23 -142 -107.5 -222.5t-181.5 -80.5q-54 0 -97.5 17.5 t-65.5 39t-41 39t-29 17.5q-48 0 -68 -88z" />
<glyph unicode="&#xd6;" horiz-adv-x="1515" d="M76 575q0 208 58.5 376.5t162.5 278.5t246 169t311 59q135 0 241.5 -33.5t187 -103.5t124 -186t43.5 -273q0 -208 -58.5 -376t-162.5 -278t-246 -169t-311 -59q-135 0 -241.5 33.5t-187 103t-124 185.5t-43.5 273zM471 1671q0 77 55 132t131 55q64 0 105 -39t41 -101 q0 -79 -55.5 -133.5t-131.5 -54.5q-64 0 -104.5 39.5t-40.5 101.5zM481 586q0 -258 211 -258q68 0 129.5 31t112 92t80.5 164.5t30 236.5q0 258 -213 258q-54 0 -104 -18.5t-95 -60t-78.5 -101.5t-53 -148.5t-19.5 -195.5zM963 1671q0 77 55 132t131 55q64 0 104.5 -39 t40.5 -101q0 -79 -55 -133.5t-131 -54.5q-64 0 -104.5 39.5t-40.5 101.5z" />
<glyph unicode="&#xd7;" d="M23 410l309 309l-309 309l245 217l295 -295l295 295l246 -217l-309 -309l309 -309l-246 -217l-295 294l-295 -294z" />
<glyph unicode="&#xd8;" horiz-adv-x="1515" d="M31 -111l186 248q-145 151 -145 438q0 208 58.5 376.5t162.5 278.5t246 169t311 59q180 0 307 -59l168 225l160 -76l-185 -250q146 -152 146 -436q0 -208 -58.5 -376t-162.5 -278t-246 -169t-311 -59q-179 0 -308 57l-165 -223zM477 586q0 -52 8 -88l443 592 q-41 20 -101 20q-54 0 -104 -18.5t-95 -60t-78.5 -101.5t-53 -148.5t-19.5 -195.5zM590 346q44 -18 98 -18q68 0 129.5 31t112 92t80.5 164.5t30 236.5q0 34 -8 88z" />
<glyph unicode="&#xd9;" horiz-adv-x="1392" d="M80 487l117 951h389l-113 -906q-7 -62 0.5 -102.5t32.5 -62.5t59.5 -30.5t87.5 -8.5q106 0 161 42.5t69 161.5l112 906h389l-116 -951q-13 -108 -53 -193.5t-99 -144t-139 -96.5t-170.5 -55.5t-196.5 -17.5q-133 0 -235.5 28t-175.5 87t-104 158.5t-15 233.5zM408 1843 h460l203 -303h-362z" />
<glyph unicode="&#xda;" horiz-adv-x="1392" d="M80 487l117 951h389l-113 -906q-7 -62 0.5 -102.5t32.5 -62.5t59.5 -30.5t87.5 -8.5q106 0 161 42.5t69 161.5l112 906h389l-116 -951q-13 -108 -53 -193.5t-99 -144t-139 -96.5t-170.5 -55.5t-196.5 -17.5q-133 0 -235.5 28t-175.5 87t-104 158.5t-15 233.5zM535 1540 l264 303h473l-363 -303h-374z" />
<glyph unicode="&#xdb;" horiz-adv-x="1392" d="M80 487l117 951h389l-113 -906q-7 -62 0.5 -102.5t32.5 -62.5t59.5 -30.5t87.5 -8.5q106 0 161 42.5t69 161.5l112 906h389l-116 -951q-13 -108 -53 -193.5t-99 -144t-139 -96.5t-170.5 -55.5t-196.5 -17.5q-133 0 -235.5 28t-175.5 87t-104 158.5t-15 233.5zM371 1540 l252 303h434l178 -303h-348l-68 123l-96 -123h-352z" />
<glyph unicode="&#xdc;" horiz-adv-x="1392" d="M80 487l117 951h389l-113 -906q-7 -62 0.5 -102.5t32.5 -62.5t59.5 -30.5t87.5 -8.5q106 0 161 42.5t69 161.5l112 906h389l-116 -951q-13 -108 -53 -193.5t-99 -144t-139 -96.5t-170.5 -55.5t-196.5 -17.5q-133 0 -235.5 28t-175.5 87t-104 158.5t-15 233.5zM410 1671 q0 77 55 132t131 55q64 0 104.5 -39t40.5 -101q0 -79 -55 -133.5t-131 -54.5q-64 0 -104.5 39.5t-40.5 101.5zM901 1671q0 77 55 132t131 55q64 0 105 -39t41 -101q0 -79 -55 -133.5t-131 -54.5q-64 0 -105 39.5t-41 101.5z" />
<glyph unicode="&#xdd;" horiz-adv-x="1363" d="M92 1427l445 21l168 -530l294 530l457 -21l-596 -888l-65 -539h-389l65 539zM520 1540l264 303h473l-362 -303h-375z" />
<glyph unicode="&#xde;" horiz-adv-x="1236" d="M20 0l177 1438h389l-27 -209q86 8 133 8q233 0 373.5 -114t140.5 -326q0 -141 -51.5 -255.5t-139.5 -188t-203.5 -113t-246.5 -39.5q-45 0 -131 8l-24 -209h-390zM477 559q77 -10 98 -10q94 0 157 50t63 149q0 72 -48 106.5t-129 34.5q-24 0 -102 -10z" />
<glyph unicode="&#xdf;" horiz-adv-x="1275" d="M-31 -422l181 1475q31 254 168.5 376.5t400.5 122.5q104 0 183 -27.5t125.5 -74.5t69.5 -103.5t23 -121.5q0 -168 -125 -336l-59 -82q117 -41 177.5 -139t60.5 -213q0 -90 -33 -175.5t-91.5 -152t-147.5 -107t-193 -40.5q-155 0 -244 51l84 282q46 -28 104 -28 q63 0 110.5 47.5t47.5 126.5q0 69 -66 128t-161 72l-4 144l153 215q45 62 45 129q0 42 -24.5 70t-73.5 28q-78 0 -124.5 -49.5t-57.5 -142.5l-181 -1475h-348z" />
<glyph unicode="&#xe0;" horiz-adv-x="1146" d="M20 393q0 100 18 189t60.5 172t106.5 143t162.5 95.5t222.5 35.5q212 0 485 -102l-112 -926h-349l19 166q-105 -102 -187 -144t-157 -42q-123 0 -196 119.5t-73 293.5zM311 1458h379l135 -344h-280zM381 440q0 -71 15 -99t44 -28q38 0 102.5 48t131.5 133l22 186 q-64 41 -135 41q-80 0 -130 -70t-50 -211z" />
<glyph unicode="&#xe1;" horiz-adv-x="1146" d="M20 393q0 100 18 189t60.5 172t106.5 143t162.5 95.5t222.5 35.5q212 0 485 -102l-112 -926h-349l19 166q-105 -102 -187 -144t-157 -42q-123 0 -196 119.5t-73 293.5zM381 440q0 -71 15 -99t44 -28q38 0 102.5 48t131.5 133l22 186q-64 41 -135 41q-80 0 -130 -70 t-50 -211zM412 1114l209 344h391l-307 -344h-293z" />
<glyph unicode="&#xe2;" horiz-adv-x="1146" d="M20 393q0 100 18 189t60.5 172t106.5 143t162.5 95.5t222.5 35.5q212 0 485 -102l-112 -926h-349l19 166q-105 -102 -187 -144t-157 -42q-123 0 -196 119.5t-73 293.5zM270 1114l238 344h373l151 -344h-307l-51 158l-92 -158h-312zM381 440q0 -71 15 -99t44 -28 q38 0 102.5 48t131.5 133l22 186q-64 41 -135 41q-80 0 -130 -70t-50 -211z" />
<glyph unicode="&#xe3;" horiz-adv-x="1146" d="M20 393q0 100 18 189t60.5 172t106.5 143t162.5 95.5t222.5 35.5q212 0 485 -102l-112 -926h-349l19 166q-105 -102 -187 -144t-157 -42q-123 0 -196 119.5t-73 293.5zM260 1155q23 142 107.5 222.5t181.5 80.5q54 0 94.5 -17.5t58.5 -38.5t34 -38.5t26 -17.5q47 0 65 88 l215 -37q-23 -142 -107 -222.5t-181 -80.5q-54 0 -94.5 17.5t-58.5 38.5t-34 38.5t-26 17.5q-48 0 -66 -88zM381 440q0 -71 15 -99t44 -28q38 0 102.5 48t131.5 133l22 186q-64 41 -135 41q-80 0 -130 -70t-50 -211z" />
<glyph unicode="&#xe4;" horiz-adv-x="1146" d="M20 393q0 100 18 189t60.5 172t106.5 143t162.5 95.5t222.5 35.5q212 0 485 -102l-112 -926h-349l19 166q-105 -102 -187 -144t-157 -42q-123 0 -196 119.5t-73 293.5zM246 1280q0 77 54.5 130.5t129.5 53.5q64 0 104.5 -38.5t40.5 -100.5q0 -79 -53.5 -133.5 t-130.5 -54.5q-65 0 -105 39.5t-40 103.5zM381 440q0 -71 15 -99t44 -28q38 0 102.5 48t131.5 133l22 186q-64 41 -135 41q-80 0 -130 -70t-50 -211zM737 1280q0 77 55 130.5t130 53.5q64 0 104.5 -38.5t40.5 -100.5q0 -79 -53.5 -133.5t-130.5 -54.5q-66 0 -106 40t-40 103 z" />
<glyph unicode="&#xe5;" horiz-adv-x="1146" d="M20 393q0 100 18 189t60.5 172t106.5 143t162.5 95.5t222.5 35.5q212 0 485 -102l-112 -926h-349l19 166q-105 -102 -187 -144t-157 -42q-123 0 -196 119.5t-73 293.5zM381 440q0 -71 15 -99t44 -28q38 0 102.5 48t131.5 133l22 186q-64 41 -135 41q-80 0 -130 -70 t-50 -211zM399 1276q0 118 82 195t201 77q102 0 163.5 -57t61.5 -150q0 -118 -81.5 -195t-200.5 -77q-102 0 -164 57t-62 150zM584 1294q0 -57 61 -57q36 0 57 23.5t21 62.5q0 57 -61 57q-36 0 -57 -23.5t-21 -62.5z" />
<glyph unicode="&#xe6;" horiz-adv-x="1503" d="M-20 229q0 96 32.5 162t105.5 110t176 69.5t259 41.5l4 35q5 39 -14 56.5t-68 17.5q-108 0 -348 -64l-12 297q105 33 227 53.5t215 20.5q99 0 152.5 -30t72.5 -97q127 127 328 127q89 0 159 -24t110.5 -64.5t61.5 -88t21 -99.5q0 -175 -148 -285t-415 -135 q-5 -27 15 -43.5t63 -16.5q108 0 321 97l41 -279q-217 -110 -397 -110q-207 0 -319 137q-202 -137 -365 -137q-121 0 -199.5 68.5t-78.5 180.5zM313 295q0 -55 66 -55q79 0 166 47q-10 55 -10 104q-129 -12 -175.5 -31t-46.5 -65zM897 563q106 11 163.5 52.5t57.5 82.5 q0 21 -15 33t-42 12q-52 0 -103 -50.5t-61 -129.5z" />
<glyph unicode="&#xe7;" horiz-adv-x="923" d="M35 395q0 129 31.5 235.5t85.5 179.5t127.5 122.5t156.5 72.5t174 23q143 0 312 -35l-80 -299q-141 27 -228 27q-121 0 -171 -70t-50 -211q0 -74 26.5 -110.5t90.5 -36.5q95 0 289 86l41 -289q-147 -77 -275 -98l-51 -66q154 -5 154 -149q0 -60 -26 -104.5t-70 -68.5 t-92.5 -35t-102.5 -11q-87 0 -170 24l55 168q79 -24 133 -24q56 0 56 24q0 13 -10.5 23t-32.5 10q-19 0 -62 -16l-59 127l61 96q-146 29 -229.5 137.5t-83.5 267.5z" />
<glyph unicode="&#xe8;" horiz-adv-x="989" d="M20 395q0 129 31.5 235.5t85.5 179.5t128 122.5t157 72.5t174 23q89 0 159 -24t110.5 -64.5t61.5 -88t21 -99.5q0 -175 -148 -285t-415 -135q-5 -27 15 -43.5t63 -16.5q108 0 321 97l41 -279q-217 -110 -397 -110q-188 0 -298 114t-110 301zM270 1458h379l135 -344h-280z M383 563q106 11 163.5 52.5t57.5 82.5q0 21 -15 33t-42 12q-52 0 -103 -50.5t-61 -129.5z" />
<glyph unicode="&#xe9;" horiz-adv-x="989" d="M20 395q0 129 31.5 235.5t85.5 179.5t128 122.5t157 72.5t174 23q89 0 159 -24t110.5 -64.5t61.5 -88t21 -99.5q0 -175 -148 -285t-415 -135q-5 -27 15 -43.5t63 -16.5q108 0 321 97l41 -279q-217 -110 -397 -110q-188 0 -298 114t-110 301zM350 1114l209 344h391 l-307 -344h-293zM383 563q106 11 163.5 52.5t57.5 82.5q0 21 -15 33t-42 12q-52 0 -103 -50.5t-61 -129.5z" />
<glyph unicode="&#xea;" horiz-adv-x="989" d="M20 395q0 129 31.5 235.5t85.5 179.5t128 122.5t157 72.5t174 23q89 0 159 -24t110.5 -64.5t61.5 -88t21 -99.5q0 -175 -148 -285t-415 -135q-5 -27 15 -43.5t63 -16.5q108 0 321 97l41 -279q-217 -110 -397 -110q-188 0 -298 114t-110 301zM207 1114l237 344h373 l152 -344h-307l-52 158l-92 -158h-311zM383 563q106 11 163.5 52.5t57.5 82.5q0 21 -15 33t-42 12q-52 0 -103 -50.5t-61 -129.5z" />
<glyph unicode="&#xeb;" horiz-adv-x="989" d="M20 395q0 129 31.5 235.5t85.5 179.5t128 122.5t157 72.5t174 23q89 0 159 -24t110.5 -64.5t61.5 -88t21 -99.5q0 -175 -148 -285t-415 -135q-5 -27 15 -43.5t63 -16.5q108 0 321 97l41 -279q-217 -110 -397 -110q-188 0 -298 114t-110 301zM182 1280q0 77 55 130.5 t130 53.5q64 0 104.5 -38.5t40.5 -100.5q0 -79 -53.5 -133.5t-130.5 -54.5q-66 0 -106 40t-40 103zM383 563q106 11 163.5 52.5t57.5 82.5q0 21 -15 33t-42 12q-52 0 -103 -50.5t-61 -129.5zM674 1280q0 77 54.5 130.5t129.5 53.5q65 0 105.5 -39t40.5 -100 q0 -79 -54 -133.5t-131 -54.5q-65 0 -105 39.5t-40 103.5z" />
<glyph unicode="&#xec;" horiz-adv-x="552" d="M-8 1458h379l135 -344h-281zM20 0l121 997l353 21l-125 -1018h-349z" />
<glyph unicode="&#xed;" horiz-adv-x="552" d="M20 0l121 997l353 21l-125 -1018h-349zM154 1114l208 344h392l-308 -344h-292z" />
<glyph unicode="&#xee;" horiz-adv-x="552" d="M-51 1114l237 344h373l152 -344h-308l-51 158l-92 -158h-311zM20 0l121 997l353 21l-125 -1018h-349z" />
<glyph unicode="&#xef;" horiz-adv-x="552" d="M-57 1280q0 77 54.5 130.5t129.5 53.5q64 0 104.5 -38.5t40.5 -100.5q0 -79 -53.5 -133.5t-130.5 -54.5q-66 0 -105.5 39.5t-39.5 103.5zM20 0l121 997l353 21l-125 -1018h-349zM434 1280q0 77 54.5 130.5t129.5 53.5q65 0 105.5 -39t40.5 -100q0 -79 -53.5 -133.5 t-130.5 -54.5q-66 0 -106 40t-40 103z" />
<glyph unicode="&#xf0;" horiz-adv-x="1132" d="M20 426q0 161 52.5 300t143 220.5t196.5 81.5q140 0 274 -151q-29 145 -100 282l-295 -102l-31 219l203 70q-87 111 -211 206h424q52 -44 102 -96l283 98l31 -219l-181 -63q144 -258 144 -557q0 -171 -44.5 -312t-121.5 -232.5t-178.5 -141t-216.5 -49.5 q-234 0 -354 123.5t-120 322.5zM379 465q0 -85 36 -131.5t107 -46.5q52 0 101 63t69 189q-41 74 -91.5 113.5t-96.5 39.5q-55 0 -90 -58t-35 -169z" />
<glyph unicode="&#xf1;" horiz-adv-x="1187" d="M20 0l121 997l353 21l-23 -176q204 186 387 186q271 0 229 -332l-83 -696h-349l74 606q10 88 -55 88q-69 0 -244 -180l-61 -514h-349zM276 1155q23 142 107.5 222.5t181.5 80.5q54 0 94.5 -17.5t58.5 -38.5t34 -38.5t26 -17.5q48 0 66 88l215 -37q-23 -142 -107.5 -222.5 t-181.5 -80.5q-54 0 -94.5 17.5t-58.5 38.5t-34 38.5t-26 17.5q-47 0 -65 -88z" />
<glyph unicode="&#xf2;" horiz-adv-x="1093" d="M20 426q0 267 160 434.5t420 167.5q216 0 324 -115t108 -331q0 -267 -159.5 -434.5t-419.5 -167.5q-216 0 -324.5 115t-108.5 331zM309 1458h379l135 -344h-280zM377 446q-3 -159 117 -159q74 0 126.5 79t53.5 195q3 160 -115 160q-74 0 -127.5 -79.5t-54.5 -195.5z" />
<glyph unicode="&#xf3;" horiz-adv-x="1093" d="M20 426q0 267 160 434.5t420 167.5q216 0 324 -115t108 -331q0 -267 -159.5 -434.5t-419.5 -167.5q-216 0 -324.5 115t-108.5 331zM377 446q-3 -159 117 -159q74 0 126.5 79t53.5 195q3 160 -115 160q-74 0 -127.5 -79.5t-54.5 -195.5zM389 1114l209 344h391l-307 -344 h-293z" />
<glyph unicode="&#xf4;" horiz-adv-x="1093" d="M20 426q0 267 160 434.5t420 167.5q216 0 324 -115t108 -331q0 -267 -159.5 -434.5t-419.5 -167.5q-216 0 -324.5 115t-108.5 331zM246 1114l237 344h373l152 -344h-308l-51 158l-92 -158h-311zM377 446q-3 -159 117 -159q74 0 126.5 79t53.5 195q3 160 -115 160 q-74 0 -127.5 -79.5t-54.5 -195.5z" />
<glyph unicode="&#xf5;" horiz-adv-x="1093" d="M20 426q0 267 160 434.5t420 167.5q216 0 324 -115t108 -331q0 -267 -159.5 -434.5t-419.5 -167.5q-216 0 -324.5 115t-108.5 331zM236 1155q23 142 107 222.5t181 80.5q54 0 94.5 -17.5t58.5 -38.5t34 -38.5t26 -17.5q48 0 66 88l215 -37q-23 -142 -107.5 -222.5 t-181.5 -80.5q-54 0 -94.5 17.5t-58.5 38.5t-34 38.5t-26 17.5q-47 0 -65 -88zM377 446q-3 -159 117 -159q74 0 126.5 79t53.5 195q3 160 -115 160q-74 0 -127.5 -79.5t-54.5 -195.5z" />
<glyph unicode="&#xf6;" horiz-adv-x="1093" d="M20 426q0 267 160 434.5t420 167.5q216 0 324 -115t108 -331q0 -267 -159.5 -434.5t-419.5 -167.5q-216 0 -324.5 115t-108.5 331zM221 1280q0 77 55 130.5t130 53.5q64 0 104.5 -38.5t40.5 -100.5q0 -79 -53.5 -133.5t-130.5 -54.5q-66 0 -106 40t-40 103zM377 446 q-3 -159 117 -159q74 0 126.5 79t53.5 195q3 160 -115 160q-74 0 -127.5 -79.5t-54.5 -195.5zM713 1280q0 77 54.5 130.5t129.5 53.5q64 0 104.5 -38.5t40.5 -100.5q0 -79 -53.5 -133.5t-130.5 -54.5q-66 0 -105.5 39.5t-39.5 103.5z" />
<glyph unicode="&#xf7;" d="M20 565l21 307h1065l-21 -307h-1065zM371 266q0 83 54.5 138t137.5 55t138 -55t55 -138t-55 -137.5t-138 -54.5t-137.5 54.5t-54.5 137.5zM371 1171q0 83 54.5 138t137.5 55t138 -55t55 -138t-55 -137.5t-138 -54.5t-137.5 54.5t-54.5 137.5z" />
<glyph unicode="&#xf8;" horiz-adv-x="1093" d="M-20 -109l151 201q-111 111 -111 334q0 267 160 434.5t420 167.5q119 0 211 -39l139 185l121 -56l-151 -200q112 -115 112 -336q0 -267 -159.5 -434.5t-419.5 -167.5q-128 0 -213 36l-138 -182zM376 431q0 -15 1 -15l225 299q-18 6 -43 6q-74 0 -127.5 -79.5 t-54.5 -195.5zM449 293q18 -6 45 -6q74 0 126.5 79t53.5 195v31z" />
<glyph unicode="&#xf9;" horiz-adv-x="1187" d="M59 311l82 686l353 21l-76 -617q-10 -88 55 -88q69 0 244 181l59 503l352 21l-124 -1018h-349l21 166q-204 -186 -387 -186q-272 0 -230 331zM350 1458h379l135 -344h-280z" />
<glyph unicode="&#xfa;" horiz-adv-x="1187" d="M59 311l82 686l353 21l-76 -617q-10 -88 55 -88q69 0 244 181l59 503l352 21l-124 -1018h-349l21 166q-204 -186 -387 -186q-272 0 -230 331zM430 1114l209 344h391l-307 -344h-293z" />
<glyph unicode="&#xfb;" horiz-adv-x="1187" d="M59 311l82 686l353 21l-76 -617q-10 -88 55 -88q69 0 244 181l59 503l352 21l-124 -1018h-349l21 166q-204 -186 -387 -186q-272 0 -230 331zM266 1114l238 344h373l151 -344h-307l-51 158l-92 -158h-312z" />
<glyph unicode="&#xfc;" horiz-adv-x="1187" d="M59 311l82 686l353 21l-76 -617q-10 -88 55 -88q69 0 244 181l59 503l352 21l-124 -1018h-349l21 166q-204 -186 -387 -186q-272 0 -230 331zM260 1280q0 77 54.5 130.5t129.5 53.5q65 0 105.5 -39t40.5 -100q0 -79 -53.5 -133.5t-130.5 -54.5q-66 0 -106 40t-40 103z M752 1280q0 77 54.5 130.5t129.5 53.5q64 0 104.5 -38.5t40.5 -100.5q0 -79 -53.5 -133.5t-130.5 -54.5q-65 0 -105 39.5t-40 103.5z" />
<glyph unicode="&#xfd;" horiz-adv-x="1073" d="M31 -264q129 120 237 264h-39l-190 997l385 21l74 -631q130 277 217 631l377 -21q-109 -450 -312 -817.5t-481 -632.5zM375 1114l209 344h391l-307 -344h-293z" />
<glyph unicode="&#xfe;" horiz-adv-x="1144" d="M-33 -432l240 1964l352 20l-88 -710q105 102 187 144t157 42q82 0 144 -57.5t93 -150.5t31 -206q0 -147 -41 -268t-112.5 -200t-166 -122.5t-202.5 -43.5q-100 0 -192 32l-52 -424zM408 328q64 -41 135 -41q80 0 130 69.5t50 210.5q0 71 -15 99t-44 28 q-38 0 -102.5 -47.5t-131.5 -132.5z" />
<glyph unicode="&#xff;" horiz-adv-x="1073" d="M31 -264q129 120 237 264h-39l-190 997l385 21l74 -631q130 277 217 631l377 -21q-109 -450 -312 -817.5t-481 -632.5zM203 1280q0 77 54.5 130.5t129.5 53.5q64 0 104.5 -38.5t40.5 -100.5q0 -79 -53.5 -133.5t-130.5 -54.5q-66 0 -105.5 39.5t-39.5 103.5zM694 1280 q0 77 55 130.5t130 53.5q64 0 104.5 -38.5t40.5 -100.5q0 -79 -53.5 -133.5t-130.5 -54.5q-66 0 -106 40t-40 103z" />
<glyph unicode="&#x152;" horiz-adv-x="2064" d="M72 575q0 208 50 376t139.5 278.5t212 169.5t267.5 59q235 0 365 -133l14 113h977l-63 -348h-568l-24 -197h465l-64 -348h-444l-25 -197h588l-61 -348h-957l12 102q-155 -122 -372 -122q-116 0 -207.5 33.5t-161 103t-106.5 185.5t-37 273zM477 586q0 -258 211 -258 q68 0 129.5 31t112 92t80.5 164.5t30 236.5q0 258 -213 258q-54 0 -104 -18.5t-95 -60t-78.5 -101.5t-53 -148.5t-19.5 -195.5z" />
<glyph unicode="&#x153;" horiz-adv-x="1638" d="M20 426q0 267 160 434.5t420 167.5q212 0 299 -135q135 135 346 135q89 0 159 -24t110.5 -64.5t61.5 -88t21 -99.5q0 -175 -148 -285t-415 -135q-5 -27 15 -43.5t63 -16.5q109 0 322 97l41 -279q-217 -110 -398 -110q-184 0 -274 133q-133 -133 -350 -133 q-216 0 -324.5 115t-108.5 331zM377 446q-3 -159 117 -159q74 0 126.5 79t53.5 195q3 160 -115 160q-74 0 -127.5 -79.5t-54.5 -195.5zM1032 563q106 11 163.5 52.5t57.5 82.5q0 21 -15 33t-42 12q-52 0 -103 -50.5t-61 -129.5z" />
<glyph unicode="&#x178;" horiz-adv-x="1363" d="M92 1427l445 21l168 -530l294 530l457 -21l-596 -888l-65 -539h-389l65 539zM395 1671q0 77 55.5 132t131.5 55q64 0 104.5 -39t40.5 -101q0 -79 -55 -133.5t-131 -54.5q-64 0 -105 39.5t-41 101.5zM887 1671q0 77 55 132t131 55q64 0 105 -39t41 -101 q0 -79 -55.5 -133.5t-131.5 -54.5q-64 0 -104.5 39.5t-40.5 101.5z" />
<glyph unicode="&#x2c6;" horiz-adv-x="966" d="M156 1114l237 344h373l152 -344h-308l-51 158l-92 -158h-311z" />
<glyph unicode="&#x2dc;" horiz-adv-x="958" d="M162 1155q23 142 107.5 222.5t181.5 80.5q54 0 94.5 -17.5t58.5 -38.5t34 -38.5t26 -17.5q47 0 65 88l215 -37q-23 -142 -107.5 -222.5t-181.5 -80.5q-54 0 -94.5 17.5t-58.5 38.5t-34 38.5t-26 17.5q-47 0 -65 -88z" />
<glyph unicode="&#x2000;" horiz-adv-x="948" />
<glyph unicode="&#x2001;" horiz-adv-x="1896" />
<glyph unicode="&#x2002;" horiz-adv-x="948" />
<glyph unicode="&#x2003;" horiz-adv-x="1896" />
<glyph unicode="&#x2004;" horiz-adv-x="632" />
<glyph unicode="&#x2005;" horiz-adv-x="474" />
<glyph unicode="&#x2006;" horiz-adv-x="316" />
<glyph unicode="&#x2007;" horiz-adv-x="316" />
<glyph unicode="&#x2008;" horiz-adv-x="237" />
<glyph unicode="&#x2009;" horiz-adv-x="379" />
<glyph unicode="&#x200a;" horiz-adv-x="105" />
<glyph unicode="&#x2010;" horiz-adv-x="686" d="M20 350l60 307h543l-60 -307h-543z" />
<glyph unicode="&#x2011;" horiz-adv-x="686" d="M20 350l60 307h543l-60 -307h-543z" />
<glyph unicode="&#x2012;" horiz-adv-x="686" d="M20 350l60 307h543l-60 -307h-543z" />
<glyph unicode="&#x2013;" horiz-adv-x="1134" d="M0 350l59 307h1033l-60 -307h-1032z" />
<glyph unicode="&#x2014;" horiz-adv-x="2152" d="M0 350l59 307h2030l-59 -307h-2030z" />
<glyph unicode="&#x2018;" horiz-adv-x="552" d="M178 1075q-40 177 4 347.5t162 377.5l279 -28q-107 -188 -130.5 -334t19.5 -334z" />
<glyph unicode="&#x2019;" horiz-adv-x="552" d="M135 1104q107 188 130.5 334t-19.5 334l332 28q40 -177 -4 -347.5t-162 -377.5z" />
<glyph unicode="&#x201a;" horiz-adv-x="552" d="M-43 -334q107 187 131.5 334t-18.5 334l331 28q40 -178 -4 -347.5t-161 -376.5z" />
<glyph unicode="&#x201c;" horiz-adv-x="1024" d="M178 1075q-40 177 4 347.5t162 377.5l279 -28q-107 -188 -130.5 -334t19.5 -334zM649 1075q-40 177 4 347.5t162 377.5l279 -28q-107 -188 -130.5 -334t19.5 -334z" />
<glyph unicode="&#x201d;" horiz-adv-x="1024" d="M135 1104q107 188 130.5 334t-19.5 334l332 28q40 -177 -4 -347.5t-162 -377.5zM606 1104q107 188 130.5 334t-19.5 334l332 28q40 -177 -4 -347.5t-162 -377.5z" />
<glyph unicode="&#x201e;" horiz-adv-x="1024" d="M-43 -334q107 187 131.5 334t-18.5 334l331 28q40 -178 -4 -347.5t-161 -376.5zM428 -334q107 187 131.5 334t-18.5 334l331 28q40 -178 -4 -347.5t-161 -376.5z" />
<glyph unicode="&#x2022;" horiz-adv-x="761" d="M63 672q0 158 105 262t258 104q128 0 205.5 -75t77.5 -197q0 -158 -105.5 -262.5t-257.5 -104.5q-128 0 -205.5 75.5t-77.5 197.5z" />
<glyph unicode="&#x2026;" horiz-adv-x="2084" d="M18 145q0 92 64 156t154 64q76 0 124 -47t48 -121q0 -91 -65.5 -154t-154.5 -63q-75 0 -122.5 46.5t-47.5 118.5zM786 145q0 92 64 156t154 64q76 0 124 -47t48 -121q0 -91 -65.5 -154t-154.5 -63q-75 0 -122.5 46.5t-47.5 118.5zM1554 145q0 92 64 156t154 64 q76 0 124 -47t48 -121q0 -91 -65.5 -154t-154.5 -63q-75 0 -122.5 46.5t-47.5 118.5z" />
<glyph unicode="&#x202f;" horiz-adv-x="379" />
<glyph unicode="&#x2039;" horiz-adv-x="702" d="M10 422l43 184l414 371l199 -281l-234 -213l182 -213l-264 -239z" />
<glyph unicode="&#x203a;" horiz-adv-x="702" d="M-6 311l235 213l-184 213l264 240l342 -391l-43 -185l-415 -370z" />
<glyph unicode="&#x205f;" horiz-adv-x="474" />
<glyph unicode="&#x20ac;" horiz-adv-x="1218" d="M-33 412l53 266h123l9 82h-142l53 266h154q46 115 117.5 200t158 134.5t180.5 73.5t197 24q196 0 377 -51l-104 -344q-10 2 -37.5 9t-34 8.5t-28 6.5t-27.5 6t-23 4.5t-24 4t-21.5 2.5t-25 2.5t-24 1t-28.5 0.5q-132 0 -208 -82h358l-53 -266h-408q-4 -30 -8 -82h344 l-53 -266h-258q51 -84 190 -84q63 0 109 7.5t146 30.5q19 5 30 7l18 -342q-193 -51 -389 -51q-223 0 -365 103t-176 329h-180z" />
<glyph unicode="&#x2122;" horiz-adv-x="1253" d="M74 1284l28 154h473l-28 -154h-146l-45 -383h-174l45 383h-153zM520 901l135 531l228 10l24 -324l78 314l246 10l10 -541h-174l14 338l-96 -332l-209 -10l-16 342l-66 -338h-174z" />
<glyph unicode="&#x25fc;" horiz-adv-x="1013" d="M0 0v1014h1014v-1014h-1014z" />
</font>
</defs>
</svg>
